<svg width="117" height="178" viewBox="0 0 117 178" fill="none" xmlns="http://www.w3.org/2000/svg">
<g opacity="0.8" filter="url(#filter0_d_66_483)">
<path d="M45.5376 132.021L77.2609 34.6249L37.62 21.7133L5.8967 119.109L45.5376 132.021Z" fill="#00A0E1"/>
<path d="M40.3915 138.554L45.5372 132.02L5.89634 119.109L6.20851 127.42L40.3915 138.554Z" fill="#006994"/>
<path d="M2.7301 138.101L6.27627 136.296L7.49093 138.685L9.88057 137.47L11.0952 139.859L13.4854 138.644L14.6985 141.033L17.0881 139.818L18.3027 142.207L20.6923 140.992L21.907 143.381L24.2966 142.166L25.5128 144.555L27.9009 143.34L29.1156 145.729L31.504 144.513L32.7197 146.903L35.1083 145.687L36.9131 149.235L40.3919 138.554L6.20892 127.42L2.7301 138.101Z" fill="#00A0E1"/>
<path d="M42.7669 15.1809L37.6198 21.7133L77.2607 34.625L76.9499 26.3148L42.7669 15.1809Z" fill="#006994"/>
<path d="M80.4287 15.6339L76.8807 17.4385L75.6662 15.0489L73.2764 16.2645L72.0621 13.8749L69.6733 15.0909L68.4593 12.7015L66.069 13.9169L64.8545 11.5273L62.4647 12.7429L61.2502 10.3534L58.8605 11.569L57.645 9.17909L55.2577 10.3955L54.0418 8.00544L51.6529 9.2214L50.4375 6.83147L48.0486 8.04742L46.2457 4.49997L42.7667 15.181L76.9497 26.3149L80.4287 15.6339Z" fill="#00A0E1"/>
<path d="M40.1893 85.235C33.6836 78.9554 28.3167 71.0261 24.4176 62.2455L19.6148 76.9911C22.6201 81.7533 26.0995 86.1006 29.9878 89.8547C43.1831 102.59 43.1475 119.33 41.0682 130.565L45.5371 132.021L52.1656 111.67C51.5523 102.851 48.4925 93.2499 40.1893 85.235Z" fill="#0084BA"/>
<path d="M46.4349 24.5847C50.1422 37.7761 57.0534 49.923 66.2383 58.7874C67.078 59.598 67.8461 60.4301 68.582 61.27L72.322 49.7878C67.1348 43.7567 62.8509 36.6275 59.698 28.9047L46.4349 24.5847Z" fill="#0084BA"/>
<path d="M34.1021 128.296C33.6682 119.183 30.7132 109.116 22.0645 100.769C19.392 98.1896 16.9131 95.3265 14.6461 92.2463L10.7331 104.26C11.1084 104.64 11.4811 105.021 11.8644 105.39C17.9389 111.253 21.2054 117.967 22.7643 124.604L34.1021 128.296Z" fill="#0084BA"/>
<path d="M58.3151 69.7024C46.8611 58.6475 38.9366 42.4896 36.3655 25.5638L29.9419 45.2854C33.8831 56.4607 40.1414 66.6281 48.1121 74.3216C53.6987 79.7115 56.903 85.8216 58.5967 91.9263L63.727 76.1754C62.2357 73.9396 60.4545 71.7664 58.3151 69.7024Z" fill="#0084BA"/>
<path d="M64.6298 54.0736L46.7832 108.866C44.2523 116.636 35.8233 120.922 28.0533 118.391C20.2832 115.86 15.9962 107.432 18.5271 99.6622L36.3737 44.8701C38.9046 37.0999 47.3331 32.8128 55.1032 35.3436C62.8733 37.8744 67.1607 46.3033 64.6298 54.0736Z" fill="white"/>
<path d="M57.7176 57.3245L43.1121 102.166C41.5293 107.025 36.2577 109.706 31.3981 108.123C26.5389 106.54 23.8568 101.269 25.4395 96.4096L40.0451 51.5683C41.6278 46.7089 46.9 44.0285 51.7591 45.6112C56.6187 47.1941 59.3004 52.4651 57.7176 57.3245Z" fill="#7A0007"/>
<path d="M53.8992 97.081L51.2569 105.194C50.8734 103.413 50.3676 101.624 49.7219 99.8445L52.5501 91.1615C53.0004 92.0471 53.4174 92.9752 53.7981 93.942C54.1891 94.9332 54.2358 96.0478 53.8992 97.081ZM41.5383 127.655C40.8845 127.777 40.1989 127.742 39.5294 127.524L33.9091 125.694C33.6915 123.53 33.3183 121.326 32.7515 119.119C36.1124 119.089 39.3508 117.909 41.9373 115.848C42.2644 120.036 42.034 124.055 41.5383 127.655ZM22.0073 121.817L13.4003 119.014C11.1758 118.289 9.98954 115.813 10.7485 113.483L13.01 106.54C17.5562 111.288 20.3708 116.536 22.0073 121.817ZM23.9186 83.1104L19.1475 97.7583C18.334 96.8623 17.5422 95.9397 16.7714 94.9917L19.2589 87.3546C19.55 86.4609 20.0936 85.6647 20.8406 85.1199C21.8574 84.3798 22.8835 83.7086 23.9186 83.1104Z" fill="#4DBDEA"/>
<path d="M51.257 105.193L44.9305 124.616C44.3998 126.246 43.0579 127.372 41.5384 127.655C42.0341 124.054 42.2645 120.035 41.9375 115.848C44.1304 114.1 45.8548 111.717 46.7835 108.866L49.722 99.8442C50.3677 101.624 50.8736 103.412 51.257 105.193Z" fill="#4DA9CF"/>
<path d="M33.9092 125.693L22.0074 121.817C20.3709 116.536 17.5562 111.288 13.01 106.54L16.7714 94.9913C17.5423 95.9394 18.334 96.8619 19.1476 97.7579L18.5274 99.6621C15.9965 107.432 20.2835 115.86 28.0535 118.391C29.6105 118.898 31.1934 119.131 32.7515 119.119C33.3184 121.325 33.6915 123.53 33.9092 125.693Z" fill="#4DA9CF"/>
<path d="M52.5498 91.1611L46.7832 108.866C45.8545 111.717 44.1301 114.1 41.9371 115.848C39.3506 117.908 36.1121 119.089 32.7512 119.119C31.1931 119.131 29.6102 118.898 28.0533 118.391C20.2832 115.86 15.9962 107.432 18.5271 99.6622L19.1473 97.758L23.9184 83.1101C26.1555 81.8167 28.4272 80.8641 30.6894 80.2912L25.4393 96.4097C23.8565 101.269 26.5387 106.54 31.3978 108.123C36.2575 109.706 41.5291 107.025 43.1119 102.166L48.5717 85.4034C50.1035 87.0339 51.4333 88.9703 52.5498 91.1611Z" fill="white"/>
<path d="M48.5719 85.4033L43.1121 102.166C41.5293 107.025 36.2577 109.706 31.3981 108.123C26.5389 106.54 23.8568 101.269 25.4395 96.4096L30.6896 80.2911C34.2036 79.3995 37.6963 79.4223 41.003 80.4994C43.8986 81.4425 46.433 83.1248 48.5719 85.4033Z" fill="#A24D52"/>
</g>
<defs>
<filter id="filter0_d_66_483" x="2.72998" y="0" width="114.199" height="177.735" filterUnits="userSpaceOnUse" color-interpolation-filters="sRGB">
<feFlood flood-opacity="0" result="BackgroundImageFix"/>
<feColorMatrix in="SourceAlpha" type="matrix" values="0 0 0 0 0 0 0 0 0 0 0 0 0 0 0 0 0 0 127 0" result="hardAlpha"/>
<feOffset dx="20" dy="12"/>
<feGaussianBlur stdDeviation="8.25"/>
<feComposite in2="hardAlpha" operator="out"/>
<feColorMatrix type="matrix" values="0 0 0 0 0 0 0 0 0 0 0 0 0 0 0 0 0 0 0.25 0"/>
<feBlend mode="normal" in2="BackgroundImageFix" result="effect1_dropShadow_66_483"/>
<feBlend mode="normal" in="SourceGraphic" in2="effect1_dropShadow_66_483" result="shape"/>
</filter>
</defs>
</svg>
