<svg width="177" height="109" viewBox="0 0 177 109" fill="none" xmlns="http://www.w3.org/2000/svg">
<g opacity="0.8" filter="url(#filter0_d_66_500)">
<path d="M22.1572 76.541L129.04 33.186L118.617 7.49126L11.7346 50.8463L22.1572 76.541Z" fill="#985A9E"/>
<path d="M22.1572 76.541L64.2534 59.4655C65.1519 54.6003 64.7784 49.6712 62.9045 45.0515C61.0306 40.4317 57.8648 36.6353 53.8309 33.7709L11.7347 50.8464L22.1572 76.541Z" fill="#5C3761"/>
<path d="M77.8698 38.9813C79.7437 43.6011 82.9095 47.3975 86.9422 50.2624L129.04 33.1862L118.617 7.49162L76.5196 24.5678C75.6224 29.4325 75.9959 34.3616 77.8698 38.9813Z" fill="#5C3761"/>
<path d="M16.629 76.7246L22.1576 76.541L11.735 50.8464L7.64084 54.5661L16.629 76.7246Z" fill="#3A233D"/>
<path d="M0.716918 57.3743L3.15467 58.4042L2.46082 60.0468L4.1024 60.7406L3.40805 62.382L5.05013 63.077L4.35628 64.7196L5.99786 65.4135L5.30401 67.0561L6.9456 67.7499L6.25124 69.3913L7.89332 70.0863L7.19897 71.7277L8.84056 72.4215L8.1472 74.0654L9.78879 74.7592L9.09443 76.4006L10.736 77.0944L9.70508 79.5327L16.6286 76.7243L7.64048 54.5659L0.716918 57.3743Z" fill="#985A9E"/>
<path d="M124.146 7.30791L118.618 7.49143L129.04 33.186L133.134 29.4664L124.146 7.30791Z" fill="#3A233D"/>
<path d="M140.057 26.6582L137.619 25.6271L138.314 23.9854L136.671 23.2919L137.367 21.6502L135.723 20.9543L136.418 19.3126L134.776 18.6191L135.471 16.9761L133.828 16.2826L134.524 14.6409L132.881 13.9462L133.576 12.3045L131.933 11.6098L132.628 9.96682L130.985 9.27334L131.68 7.63162L130.037 6.9369L131.069 4.49976L124.146 7.30787L133.134 29.4663L140.057 26.6582Z" fill="#985A9E"/>
<path d="M115.729 30.2213L29.6405 65.1416C27.7712 65.8998 25.6217 64.9904 24.8634 63.121L23.0251 58.589C22.2663 56.7184 23.1754 54.5698 25.0446 53.8115L111.133 18.8912C113.003 18.1329 115.152 19.0409 115.911 20.9115L117.749 25.4435C118.508 27.3129 117.599 29.463 115.729 30.2213Z" fill="white"/>
<path d="M112.147 28.5406L31.0402 61.4401C29.7385 61.9681 28.2408 61.3353 27.7126 60.0331L27.2204 58.8198C26.6922 57.5175 27.3258 56.0202 28.6275 55.4922L109.735 22.5926C111.037 22.0644 112.534 22.6974 113.062 23.9997L113.554 25.213C114.082 26.5153 113.449 28.0123 112.147 28.5406Z" fill="#FFAC00"/>
<path d="M64.841 57.0574L64.584 57.1616C64.7911 55.1006 64.765 53.0392 64.4885 51.0061L70.8702 48.4175C70.2609 50.5265 69.0916 52.7519 67.4319 55.0309C66.7757 55.9316 65.8751 56.6379 64.841 57.0574ZM66.2212 37.109L59.8927 39.6761C58.6747 38.0248 57.2574 36.5277 55.673 35.1934L55.8237 35.1323C56.8505 34.7158 57.9784 34.595 59.0712 34.7776C61.8773 35.2466 64.2919 36.024 66.2212 37.109Z" fill="#B78CBB"/>
<path d="M64.5839 57.1617L30.0269 71.1791C26.9808 72.4147 23.5103 70.9461 22.2749 67.9005L17.8385 56.9634C16.6031 53.9177 18.0699 50.4465 21.1159 49.2109L55.6729 35.1935C57.2573 36.5278 58.6746 38.0249 59.8926 39.6761L25.0448 53.8115C23.1755 54.5697 22.2664 56.7183 23.0252 58.5889L24.8636 63.121C25.6218 64.9904 27.7713 65.8998 29.6406 65.1415L64.4884 51.0062C64.7649 53.0393 64.791 55.1007 64.5839 57.1617Z" fill="#8D7391"/>
<path d="M70.8699 48.4176L29.6405 65.1416C27.7712 65.8998 25.6217 64.9904 24.8634 63.121L23.0251 58.589C22.2663 56.7184 23.1754 54.5698 25.0446 53.8115L59.8925 39.6762L66.221 37.1091C67.2687 37.6985 68.173 38.3777 68.9188 39.1486L28.6271 55.4922C27.3254 56.0202 26.6918 57.5175 27.22 58.8198L27.7122 60.0331C28.2404 61.3354 29.7381 61.9681 31.0398 61.4402L71.3574 45.086C71.3693 46.1546 71.2023 47.2684 70.8699 48.4176Z" fill="white"/>
<path d="M71.3578 45.086L31.0402 61.4401C29.7385 61.9681 28.2408 61.3353 27.7126 60.0331L27.2204 58.8198C26.6922 57.5175 27.3258 56.0202 28.6275 55.4922L68.9192 39.1486C69.7103 39.9673 70.3241 40.8881 70.7396 41.9124C71.1455 42.9132 71.3475 43.9751 71.3578 45.086Z" fill="#FFC54D"/>
</g>
<defs>
<filter id="filter0_d_66_500" x="0.716797" y="0" width="175.84" height="108.033" filterUnits="userSpaceOnUse" color-interpolation-filters="sRGB">
<feFlood flood-opacity="0" result="BackgroundImageFix"/>
<feColorMatrix in="SourceAlpha" type="matrix" values="0 0 0 0 0 0 0 0 0 0 0 0 0 0 0 0 0 0 127 0" result="hardAlpha"/>
<feOffset dx="20" dy="12"/>
<feGaussianBlur stdDeviation="8.25"/>
<feComposite in2="hardAlpha" operator="out"/>
<feColorMatrix type="matrix" values="0 0 0 0 0 0 0 0 0 0 0 0 0 0 0 0 0 0 0.25 0"/>
<feBlend mode="normal" in2="BackgroundImageFix" result="effect1_dropShadow_66_500"/>
<feBlend mode="normal" in="SourceGraphic" in2="effect1_dropShadow_66_500" result="shape"/>
</filter>
</defs>
</svg>
