<svg width="242" height="277" viewBox="0 0 242 277" fill="none" xmlns="http://www.w3.org/2000/svg">
<g opacity="0.8" filter="url(#filter0_d_66_430)">
<path d="M81.9795 243.026L202.636 189.584L195.351 182.846L81.8857 233.104L81.9795 243.026Z" fill="#A1A5AD"/>
<path d="M123.006 9.80567L2.34984 63.2483L9.63589 69.9869L123.101 19.7294L123.006 9.80567Z" fill="#A1A5AD"/>
<path d="M14.7964 81.6392L128.262 31.3815L123.101 19.7296L9.63538 69.9872L14.7964 81.6392Z" fill="#2D5923"/>
<path d="M0.000111106 57.9425L120.656 4.49991L123.006 9.80543L2.3501 63.248L0.000111106 57.9425Z" fill="#C8CCD6"/>
<path d="M81.8853 233.104L195.351 182.846L191.216 173.51L77.7502 223.768L81.8853 233.104Z" fill="#2D5923"/>
<path d="M204.986 194.89L84.3301 248.333L81.9796 243.026L202.636 189.584L204.986 194.89Z" fill="#C8CCD6"/>
<path d="M191.616 178.872L81.4522 227.668C79.4336 228.562 77.0727 227.651 76.1785 225.632L11.3341 79.2339C10.4399 77.2151 11.351 74.8531 13.3696 73.959L123.534 25.1637C125.553 24.2695 127.914 25.1821 128.808 27.2009L193.652 173.599C194.547 175.618 193.635 177.978 191.616 178.872Z" fill="#4D993C"/>
<path d="M56.7905 181.86L174.264 129.827L148.196 70.9721L30.7216 123.005L56.7905 181.86Z" fill="#F0F0F0"/>
<path d="M132.67 108.443C142.803 131.319 136.742 156.187 119.134 163.986C101.526 171.785 79.0378 159.563 68.9051 136.687C58.773 113.811 64.8332 88.9439 82.4407 81.145C100.049 73.3456 122.538 85.5679 132.67 108.443Z" fill="#D18D00"/>
<path d="M130.084 109.588C139.396 130.61 133.827 153.459 117.646 160.626C101.466 167.793 80.8023 156.563 71.491 135.541C62.1806 114.521 67.7491 91.6712 83.929 84.5046C100.11 77.3374 120.774 88.5684 130.084 109.588Z" fill="#FFAC00"/>
<path d="M97.7195 161.153L124.165 99.415C123.388 98.3681 122.58 97.3651 121.746 96.4033L94.5447 159.908C95.5936 160.38 96.6535 160.794 97.7195 161.153Z" fill="#D18D00"/>
<path d="M108.823 162.733L130.828 111.36C130.59 110.769 130.346 110.178 130.085 109.59C129.717 108.759 129.325 107.95 128.923 107.151L105.13 162.698C106.367 162.795 107.599 162.805 108.823 162.733Z" fill="#D18D00"/>
<path d="M88.0605 156.199L116.05 90.8549C115.134 90.1041 114.199 89.4014 113.247 88.7439L85.2676 154.062C86.1807 154.82 87.1126 155.534 88.0605 156.199Z" fill="#D18D00"/>
<path d="M67.4829 121.732L83.298 84.809C81.4597 85.686 79.7594 86.7628 78.2129 88.0253L66.9908 114.224C66.9562 116.678 67.1146 119.188 67.4829 121.732Z" fill="#D18D00"/>
<path d="M134.584 130.095C134.576 127.709 134.382 125.274 133.997 122.81L117.838 160.534C119.642 159.717 121.307 158.7 122.839 157.516L134.584 130.095Z" fill="#D18D00"/>
<path d="M79.596 148.457L106.74 85.0885C105.685 84.6267 104.622 84.2225 103.552 83.874L77.1904 145.416C77.9624 146.471 78.7651 147.486 79.596 148.457Z" fill="#D18D00"/>
<path d="M71.491 135.541C71.802 136.244 72.1274 136.932 72.4628 137.61L96.1051 82.4132C94.8614 82.3312 93.6239 82.3325 92.3942 82.4207L70.5805 133.347C70.8674 134.081 71.1681 134.812 71.491 135.541Z" fill="#D18D00"/>
<path d="M123.534 25.1639L13.3699 73.9592C11.3513 74.8533 10.4402 77.2153 11.3344 79.2341L14.0694 85.4089C32.8711 86.5437 55.4075 82.3437 77.8109 72.4205C100.851 62.2154 119.49 47.8376 131.238 32.6871L128.808 27.2011C127.914 25.1823 125.553 24.2697 123.534 25.1639Z" fill="#3D7A30"/>
<path d="M126.234 181.745C103.831 191.669 85.5759 205.535 73.7826 220.223L76.1785 225.632C77.0727 227.651 79.4336 228.562 81.4522 227.668L191.616 178.872C193.635 177.978 194.547 175.618 193.652 173.599L191.561 168.877C172.447 167.397 149.274 171.54 126.234 181.745Z" fill="#3D7A30"/>
<path d="M191.561 168.877C172.447 167.397 149.274 171.54 126.234 181.745C103.831 191.668 85.5761 205.535 73.7829 220.223L56.7908 181.86L67.0979 177.295L75.7864 192.69C76.5264 194.018 78.4235 194.514 80.026 193.804L167.496 155.061C169.099 154.351 170.007 152.613 169.52 151.172L163.957 134.392L174.265 129.827L191.561 168.877ZM148.196 70.9714L143.608 73.0033L130.54 33.5764C130.775 33.2812 131.008 32.9841 131.238 32.6868L148.196 70.9714ZM35.3091 120.972L30.7218 123.004L14.0694 85.4086C14.4681 85.4317 14.8707 85.4547 15.2731 85.4733L35.3091 120.972Z" fill="#458936"/>
<path d="M174.264 129.827L163.957 134.393L143.608 73.0037L148.195 70.9717L174.264 129.827ZM67.0976 177.295L56.7905 181.86L30.7215 123.005L35.3088 120.973L67.0976 177.295Z" fill="#D8D8D8"/>
<path d="M15.2729 85.4736C14.8705 85.455 14.4679 85.432 14.0691 85.4088L11.3341 79.2341C10.4399 77.2153 11.351 74.8533 13.3696 73.9592C11.351 74.8533 10.6575 77.2706 11.814 79.3453L15.2729 85.4736ZM130.54 33.5767L128.568 27.631C127.809 25.3804 125.553 24.2697 123.534 25.1639C125.553 24.2697 127.914 25.1823 128.808 27.2011L131.238 32.6871C131.008 32.9843 130.775 33.2815 130.54 33.5767Z" fill="#376E2B"/>
<path d="M191.616 178.872L81.4522 227.668C79.4336 228.562 77.0727 227.651 76.1785 225.632L73.7826 220.223C85.5759 205.535 103.831 191.669 126.234 181.745C149.274 171.54 172.447 167.397 191.561 168.877L193.652 173.599C194.284 175.024 194.016 176.618 193.093 177.748C192.708 178.218 192.21 178.609 191.616 178.872Z" fill="#376E2B"/>
<path d="M101.732 79.8444C95.1933 78.1457 88.5251 78.4496 82.4406 81.1446C76.3975 83.8213 71.7146 88.5087 68.5801 94.4366C52.9159 96.8906 38.0375 93.5178 28.0559 85.3089C43.5753 84.2242 60.7323 79.9847 77.8106 72.4201C95.7728 64.4641 111.061 53.9709 122.495 42.5545C122.191 55.8454 114.528 69.6311 101.732 79.8444Z" fill="#83B877"/>
<path d="M98.0336 82.5956C93.2131 81.9484 88.4006 82.524 83.929 84.5046C79.4951 86.4685 75.8593 89.6087 73.1069 93.5679C71.5925 93.912 70.0831 94.2014 68.5803 94.4369C71.7148 88.5089 76.3977 83.8215 82.4408 81.1448C88.5253 78.4498 95.1935 78.1459 101.732 79.8446C100.543 80.7943 99.3088 81.7114 98.0336 82.5956Z" fill="#DFAF4D"/>
<path d="M86.2412 89.1982C84.3175 90.0503 82.3814 90.8087 80.4418 91.4767L83.2981 84.8087C81.4597 85.6857 79.7595 86.7625 78.2129 88.025L76.1674 92.7998C75.1455 93.0804 74.1259 93.3366 73.1069 93.5677C75.8593 89.6085 79.495 86.4684 83.9289 84.5045C88.4006 82.5238 93.2131 81.9482 98.0335 82.5954C97.123 83.2262 96.1924 83.8382 95.24 84.4336L96.105 82.4128C94.8613 82.3308 93.6238 82.3321 92.3941 82.4203L90.3331 87.2326C89.0025 87.9226 87.6371 88.5799 86.2412 89.1982Z" fill="#FFC54D"/>
<path d="M80.4417 91.4771C79.0183 91.9676 77.592 92.4083 76.1673 92.8002L78.2128 88.0253C79.7593 86.7629 81.4596 85.686 83.2979 84.8091L80.4417 91.4771Z" fill="#DFAF4D"/>
<path d="M90.333 87.2329L92.394 82.4206C93.6236 82.3324 94.8611 82.3311 96.1049 82.4131L95.2399 84.4339C93.6597 85.4196 92.0246 86.3539 90.333 87.2329Z" fill="#DFAF4D"/>
<path d="M77.8107 72.4205C60.7323 79.985 43.5753 84.2246 28.0559 85.3093C27.0269 84.4628 26.0503 83.5655 25.1305 82.6182C22.6955 80.1122 23.6064 75.9158 26.8003 74.5011L115.3 35.302C118.494 33.8872 122.213 36.0327 122.433 39.5195C122.497 40.5266 122.517 41.5387 122.495 42.5548C111.061 53.9713 95.7729 64.4644 77.8107 72.4205Z" fill="#78A26F"/>
</g>
<defs>
<filter id="filter0_d_66_430" x="0" y="0" width="241.486" height="276.833" filterUnits="userSpaceOnUse" color-interpolation-filters="sRGB">
<feFlood flood-opacity="0" result="BackgroundImageFix"/>
<feColorMatrix in="SourceAlpha" type="matrix" values="0 0 0 0 0 0 0 0 0 0 0 0 0 0 0 0 0 0 127 0" result="hardAlpha"/>
<feOffset dx="20" dy="12"/>
<feGaussianBlur stdDeviation="8.25"/>
<feComposite in2="hardAlpha" operator="out"/>
<feColorMatrix type="matrix" values="0 0 0 0 0 0 0 0 0 0 0 0 0 0 0 0 0 0 0.25 0"/>
<feBlend mode="normal" in2="BackgroundImageFix" result="effect1_dropShadow_66_430"/>
<feBlend mode="normal" in="SourceGraphic" in2="effect1_dropShadow_66_430" result="shape"/>
</filter>
</defs>
</svg>
