<svg width="215" height="207" viewBox="0 0 215 207" fill="none" xmlns="http://www.w3.org/2000/svg">
<g opacity="0.8" filter="url(#filter0_d_66_610)">
<path d="M51.2657 36.5386L157.539 99.6122L168.721 80.7714L62.4478 17.6977L51.2657 36.5386Z" fill="#4F879E"/>
<path d="M158.547 92.4613L57.0587 32.2273C54.597 30.7663 53.7778 27.559 55.2396 25.0961C56.6999 22.6355 59.909 21.8159 62.3708 23.277L163.859 83.5109C166.322 84.9727 167.139 88.1816 165.679 90.6422C164.217 93.105 161.01 93.923 158.547 92.4613Z" fill="#28434F"/>
<path d="M66.1622 4.68414L62.4481 17.6978L168.722 80.7715L178.366 71.2775L178.365 71.2768C177.975 69.7512 176.997 68.4431 175.641 67.6387L70.6591 5.33123C69.3049 4.52755 67.6878 4.29496 66.1622 4.68414Z" fill="#65ABC9"/>
<path d="M100.976 176.091L11.2261 122.824C5.10787 119.193 3.09055 111.288 6.7225 105.168L48.3376 35.0505C51.9695 28.9312 59.8747 26.9156 65.9929 30.5468L155.743 83.8137C161.862 87.4456 163.878 95.3496 160.247 101.469L118.631 171.587C115 177.706 107.095 179.723 100.976 176.091Z" fill="#65ABC9"/>
<path d="M100.039 168.547L18.298 120.034C12.8631 116.808 11.0734 109.789 14.2984 104.356L51.2549 42.0873C54.4797 36.6537 61.4983 34.8623 66.9332 38.0879L148.674 86.6014C154.108 89.8264 155.899 96.8461 152.674 102.28L115.717 164.548C112.492 169.982 105.473 171.772 100.039 168.547Z" fill="#A7D7EB"/>
<path d="M43.4166 121.801C45.3768 120.068 47.3382 118.336 49.2997 116.604C49.785 116.176 50.331 115.723 50.9779 115.723C51.5257 115.722 52.0103 116.047 52.4949 116.307C54.5941 117.43 57.2847 117.362 59.3246 116.132C59.9041 115.783 60.4652 115.336 61.1378 115.264C61.9409 115.178 62.6918 115.647 63.4877 115.779C64.883 116.012 66.2086 115.213 67.4884 114.611C69.9927 113.432 72.8129 112.933 75.5691 113.18C76.643 113.278 77.805 113.467 78.7332 112.917C80.6861 111.758 80.1627 108.256 82.2135 107.283C83.4599 106.693 84.8996 107.423 86.0752 108.141C87.2543 108.86 88.43 109.586 89.5997 110.319C90.2408 110.72 90.902 111.145 91.297 111.785C91.6971 112.438 91.7739 113.228 91.8902 113.986C92.3633 117.045 93.6676 119.973 95.6279 122.367C86.9859 127.963 75.6807 129.223 66.0174 125.669L43.4166 121.801Z" fill="#62C24C"/>
<path d="M131.344 117.434C131.88 111.726 129.19 105.95 123.932 102.829C116.661 98.5139 107.269 100.911 102.955 108.18C101.562 110.526 100.878 113.092 100.822 115.639C110.95 116.181 121.155 116.96 131.344 117.434Z" fill="#CF424B"/>
<path d="M83.6685 120.21C85.2754 118.146 86.8835 116.081 88.4907 114.016C88.889 113.507 89.3422 112.96 89.9778 112.84C90.5166 112.74 91.0527 112.967 91.5763 113.133C93.8483 113.85 96.4776 113.287 98.2568 111.702C98.7616 111.251 99.2313 110.708 99.8785 110.514C100.652 110.282 101.477 110.603 102.282 110.586C103.697 110.557 104.853 109.526 106 108.698C108.242 107.077 110.922 106.066 113.676 105.801C114.749 105.697 115.927 105.668 116.737 104.957C118.444 103.458 117.282 100.113 119.119 98.7772C120.234 97.9672 121.784 98.4185 123.071 98.9084C124.362 99.3973 125.652 99.8944 126.937 100.397C127.642 100.672 128.369 100.966 128.877 101.528C129.391 102.093 129.611 102.856 129.866 103.578C130.895 106.498 132.718 109.133 135.088 111.126C127.625 118.221 116.749 121.547 106.596 119.839L83.6685 120.21Z" fill="#62C24C"/>
<path d="M47.0051 123.684C47.0051 123.684 50.4115 116.967 52.4947 116.307C54.5765 115.645 86.7942 109.45 104.647 117.363L47.0051 123.684Z" fill="#FFAC00"/>
<path d="M79.5428 128.03C80.0345 122.797 77.5671 117.5 72.7445 114.637C66.0794 110.682 57.4671 112.877 53.5106 119.544C52.2333 121.696 51.6067 124.05 51.5562 126.385C60.8417 126.881 70.2003 127.595 79.5428 128.03Z" fill="#CF424B"/>
<path d="M112.036 123.252C112.572 117.544 109.882 111.768 104.624 108.647C97.3536 104.332 87.9635 106.728 83.6484 113.998C82.2554 116.345 81.5711 118.912 81.5142 121.458C91.642 121.999 101.848 122.776 112.036 123.252Z" fill="#CF424B"/>
<path d="M36.9629 122.225L141.739 103.469L111.99 153.593C108.8 158.968 101.857 160.74 96.4816 157.55L36.9629 122.225Z" fill="#FFD47A"/>
<path d="M138.257 104.09L111.054 149.926C107.864 155.3 100.922 157.073 95.5463 153.883L40.9912 121.504L36.9629 122.225L96.4816 157.55C101.857 160.74 108.8 158.968 111.99 153.593L141.739 103.469L138.257 104.09Z" fill="#D18D49"/>
<path d="M78.0705 131.852C77.6984 132.479 76.8882 132.687 76.2599 132.314C75.6327 131.942 75.4258 131.13 75.798 130.503C76.1709 129.875 76.9815 129.669 77.6086 130.041C78.237 130.414 78.4434 131.224 78.0705 131.852Z" fill="#E0B55C"/>
<path d="M97.8337 132.563C97.4608 133.191 96.6514 133.397 96.023 133.024C95.3958 132.652 95.1882 131.842 95.5612 131.214C95.9333 130.587 96.7439 130.381 97.3711 130.753C97.9994 131.126 98.2059 131.936 97.8337 132.563Z" fill="#E0B55C"/>
<path d="M105.849 138.856C105.476 139.485 104.664 139.69 104.037 139.317C103.41 138.945 103.202 138.135 103.575 137.507C103.947 136.88 104.759 136.673 105.386 137.045C106.013 137.417 106.221 138.229 105.849 138.856Z" fill="#E0B55C"/>
<path d="M89.3045 127.136C88.8435 127.912 87.8406 128.168 87.0632 127.707C86.2858 127.245 86.0298 126.242 86.4907 125.466C86.9519 124.689 87.9557 124.432 88.7331 124.893C89.5105 125.354 89.7656 126.359 89.3045 127.136Z" fill="#E0B55C"/>
<path d="M96.1859 142.97C95.7252 143.746 94.7214 144.003 93.9452 143.542C93.1678 143.081 92.9114 142.076 93.3721 141.3C93.8336 140.522 94.8377 140.267 95.6151 140.729C96.3913 141.189 96.6473 142.192 96.1859 142.97Z" fill="#E0B55C"/>
<path d="M119.381 123.586C118.919 124.364 117.917 124.62 117.14 124.159C116.363 123.698 116.105 122.694 116.567 121.916C117.028 121.139 118.033 120.884 118.81 121.345C119.587 121.807 119.842 122.809 119.381 123.586Z" fill="#E0B55C"/>
<path d="M106.625 120.44C106.164 121.217 105.159 121.473 104.381 121.012C103.604 120.551 103.35 119.547 103.811 118.77C104.272 117.993 105.275 117.736 106.052 118.197C106.829 118.658 107.086 119.663 106.625 120.44Z" fill="#E0B55C"/>
<path d="M67.9326 123.933C67.4711 124.71 66.4682 124.966 65.6908 124.505C64.9134 124.043 64.6562 123.04 65.1177 122.262C65.5792 121.485 66.5841 121.228 67.3615 121.69C68.1389 122.151 68.3941 123.155 67.9326 123.933Z" fill="#E0B55C"/>
<path d="M123.597 84.8602C121.636 86.5923 119.675 88.3236 117.713 90.057C117.23 90.4849 116.682 90.9379 116.035 90.9386C115.487 90.9388 115.001 90.6134 114.518 90.3564C112.418 89.2322 109.729 89.3002 107.688 90.529C107.109 90.8772 106.547 91.325 105.875 91.3971C105.072 91.4824 104.321 91.0144 103.525 90.8818C102.131 90.6497 100.802 91.4486 99.5236 92.0514C97.0199 93.229 94.1998 93.7277 91.4443 93.4799C90.371 93.3839 89.2076 93.1941 88.2794 93.7444C86.3273 94.9018 86.849 98.4039 84.7974 99.3788C83.5543 99.9685 82.1138 99.2372 80.9385 98.5215C79.7597 97.8012 78.5835 97.074 77.4132 96.3419C76.773 95.9419 76.1112 95.5183 75.7164 94.8746C75.315 94.2238 75.2394 93.4316 75.1216 92.6767C74.6505 89.6171 73.345 86.6886 71.3835 84.2931C80.0279 78.6992 91.3324 77.4375 100.995 80.9906L123.597 84.8602Z" fill="#62C24C"/>
<path d="M35.6682 89.2279C35.1335 94.9357 37.8232 100.712 43.0815 103.833C50.3509 108.148 59.7422 105.752 64.0573 98.4814C65.4502 96.1345 66.1334 93.5675 66.1903 91.0211C56.0617 90.4819 45.8579 89.7035 35.6682 89.2279Z" fill="#CF424B"/>
<path d="M83.3435 86.4516C81.7371 88.5155 80.129 90.5798 78.5226 92.6438C78.1247 93.1549 77.6705 93.7006 77.0352 93.8202C76.4965 93.9231 75.9589 93.6926 75.4371 93.5269C73.1653 92.8115 70.5342 93.3758 68.7568 94.9598C68.252 95.4107 67.782 95.9518 67.1344 96.147C66.3618 96.3801 65.5372 96.0585 64.7284 96.0757C63.3161 96.1042 62.1583 97.1353 61.0131 97.9625C58.7701 99.5839 56.0914 100.594 53.3355 100.859C52.2633 100.962 51.0856 100.992 50.2751 101.705C48.5693 103.202 49.7292 106.549 47.8932 107.884C46.7803 108.693 45.2298 108.241 43.942 107.754C42.6493 107.265 41.3617 106.767 40.0752 106.262C39.3715 105.988 38.6435 105.694 38.1359 105.133C37.623 104.568 37.4018 103.805 37.1471 103.084C36.1177 100.164 34.2938 97.5287 31.9247 95.5352C39.3867 88.4407 50.2638 85.1143 60.4169 86.8218L83.3435 86.4516Z" fill="#62C24C"/>
<path d="M120.009 82.9772C120.009 82.9772 116.601 89.6945 114.518 90.3566C112.437 91.0157 80.22 97.2114 62.3672 89.2993L120.009 82.9772Z" fill="#FFAC00"/>
<path d="M87.4704 78.6311C86.9788 83.8665 89.4451 89.1628 94.2665 92.0244C100.933 95.9809 109.545 93.7829 113.502 87.1157C114.779 84.9645 115.405 82.6128 115.459 80.2763C106.169 79.7809 96.8137 79.0671 87.4704 78.6311Z" fill="#CF424B"/>
<path d="M54.9767 83.4092C54.4396 89.1185 57.1318 94.8935 62.389 98.0136C69.6595 102.329 79.051 99.9328 83.3654 92.6635C84.7577 90.3176 85.4414 87.7496 85.4976 85.2046C75.3694 84.6619 65.1655 83.8837 54.9767 83.4092Z" fill="#CF424B"/>
<path d="M130.05 84.4371L25.272 103.194L55.0217 53.0683C58.2122 47.6927 65.1552 45.9216 70.5304 49.1118L130.05 84.4371Z" fill="#FFD47A"/>
<path d="M28.7538 102.571L55.9575 56.7349C59.1476 51.3597 66.0909 49.5906 71.4662 52.7809L126.021 85.1595L130.05 84.4371L70.5304 49.1118C65.1552 45.9216 58.2122 47.6927 55.0217 53.0683L25.272 103.194L28.7538 102.571Z" fill="#D18D49"/>
<path d="M88.9416 74.8089C89.3145 74.1806 90.1251 73.9748 90.7522 74.347C91.3806 74.7199 91.5871 75.5294 91.2142 76.1577C90.842 76.7848 90.0317 76.9926 89.4034 76.6197C88.7762 76.2475 88.5694 75.436 88.9416 74.8089Z" fill="#E0B55C"/>
<path d="M69.1788 74.0991C69.5518 73.4706 70.362 73.2629 70.9891 73.6351C71.6175 74.008 71.8243 74.8194 71.4514 75.4478C71.0797 76.074 70.2679 76.282 69.6396 75.909C69.0124 75.5368 68.8072 74.7252 69.1788 74.0991Z" fill="#E0B55C"/>
<path d="M61.165 67.8047C61.5363 67.179 62.3473 66.9699 62.9756 67.3428C63.6028 67.7151 63.8089 68.5278 63.4376 69.1535C63.0646 69.7818 62.2532 69.989 61.6261 69.6168C60.9977 69.2438 60.7921 68.4331 61.165 67.8047Z" fill="#E0B55C"/>
<path d="M77.7075 79.5267C78.169 78.7492 79.1728 78.4921 79.9501 78.9535C80.7264 79.4142 80.9827 80.4191 80.5213 81.1966C80.0598 81.9741 79.0562 82.2283 78.28 81.7676C77.5026 81.3062 77.2461 80.3042 77.7075 79.5267Z" fill="#E0B55C"/>
<path d="M70.8267 63.6918C71.2882 62.9142 72.2919 62.6572 73.0693 63.1186C73.8467 63.58 74.1019 64.5842 73.6405 65.3617C73.1793 66.1388 72.176 66.395 71.3986 65.9336C70.6212 65.4722 70.3656 64.4688 70.8267 63.6918Z" fill="#E0B55C"/>
<path d="M47.6311 83.0742C48.0923 82.2972 49.0968 82.0416 49.8741 82.503C50.6504 82.9637 50.9061 83.9672 50.4449 84.7442C49.984 85.5208 48.9802 85.7778 48.204 85.3171C47.4266 84.8557 47.1702 83.8508 47.6311 83.0742Z" fill="#E0B55C"/>
<path d="M60.389 86.2213C60.8497 85.445 61.8527 85.1894 62.6289 85.6501C63.4063 86.1115 63.6635 87.115 63.2028 87.8912C62.7408 88.6697 61.7364 88.9251 60.959 88.4637C60.1828 88.003 59.927 86.9997 60.389 86.2213Z" fill="#E0B55C"/>
<path d="M99.0797 82.7284C99.5411 81.9509 100.545 81.6958 101.323 82.1572C102.099 82.6179 102.355 83.6208 101.893 84.3984C101.432 85.1759 100.429 85.4316 99.6527 84.9709C98.8753 84.5095 98.6182 83.5059 99.0797 82.7284Z" fill="#E0B55C"/>
<path d="M83.5244 103.253C81.1705 101.856 78.9498 100.31 76.8659 98.633C77.6213 98.2692 78.3482 97.8412 79.0392 97.3537C79.6709 97.7445 80.3046 98.1344 80.9384 98.5216C81.0049 98.561 81.072 98.6021 81.1408 98.6429C82.276 99.3167 83.6236 99.9354 84.7973 99.3789C86.8489 98.404 86.3272 94.9019 88.2793 93.7445C89.2075 93.1943 90.371 93.384 91.4443 93.48C93.1413 93.6328 94.8623 93.5022 96.5182 93.1052C100.976 94.7761 105.929 94.0341 109.679 91.3144C112.336 90.8723 114.083 90.4933 114.518 90.3566C115.001 90.6136 115.487 90.9389 116.035 90.9387C116.682 90.938 117.229 90.485 117.713 90.0571C119.328 88.6294 120.942 87.2045 122.558 85.7787L126.02 85.1591L126.021 85.1598L130.05 84.4373L70.5306 49.112C65.1553 45.9218 58.2123 47.6929 55.0219 53.0685L54.3911 54.1313C54.1698 51.4137 54.0989 48.6596 54.1781 45.8849C54.3125 41.2617 59.3879 38.2956 63.3826 40.6247L63.4663 40.6743L148.065 90.8837L148.147 90.9327C152.105 93.3237 151.933 99.1997 147.939 101.532C145.567 102.916 143.141 104.161 140.676 105.261L141.74 103.469L138.257 104.09L130.654 105.453C130.355 104.844 130.091 104.218 129.866 103.579C129.611 102.857 129.391 102.094 128.877 101.528C128.669 101.298 128.425 101.114 128.16 100.957C127.778 100.73 127.353 100.56 126.937 100.397C125.652 99.8947 124.362 99.3976 123.071 98.9087C121.783 98.4188 120.234 97.9675 119.119 98.7775C118.464 99.2551 118.19 99.9874 118.031 100.802C112.285 100.081 106.392 102.676 103.142 107.873C99.4945 106.21 95.4607 106.097 91.8616 107.325C89.0116 106.21 86.2247 104.856 83.5244 103.253Z" fill="#C2E3F1"/>
<path d="M103.142 107.873C106.393 102.676 112.285 100.081 118.031 100.801C117.746 102.266 117.835 103.993 116.737 104.957C115.927 105.668 114.749 105.697 113.676 105.801C110.922 106.066 108.242 107.077 106 108.698C105.801 108.842 105.602 108.991 105.402 109.141C105.149 108.969 104.89 108.804 104.624 108.647C104.139 108.359 103.644 108.1 103.142 107.873Z" fill="#DD7B81"/>
<path d="M106.315 109.81C106.022 109.577 105.716 109.354 105.402 109.141C105.602 108.991 105.801 108.843 106 108.698C108.242 107.077 110.922 106.066 113.676 105.802C114.749 105.697 115.927 105.668 116.737 104.957C117.834 103.993 117.746 102.266 118.031 100.801C118.19 99.9872 118.464 99.255 119.119 98.7773C120.234 97.9673 121.783 98.4186 123.071 98.9085C124.362 99.3974 125.652 99.8945 126.937 100.397C127.353 100.56 127.778 100.73 128.16 100.957C128.425 101.114 128.669 101.298 128.877 101.528C129.391 102.093 129.611 102.856 129.866 103.578C130.091 104.218 130.355 104.844 130.654 105.453L106.315 109.81Z" fill="#91D482"/>
<path d="M91.8619 107.325C95.4609 106.097 99.4948 106.21 103.142 107.873C103.644 108.1 104.139 108.359 104.624 108.647C104.89 108.805 105.149 108.969 105.402 109.141C105.716 109.354 106.022 109.577 106.315 109.81L102.947 110.412C99.1789 109.759 95.4691 108.734 91.8619 107.325Z" fill="#DD7B81"/>
<path d="M102.946 110.413L106.315 109.81L130.654 105.453L138.256 104.092L136.561 106.948C125.599 111.053 114.02 112.333 102.946 110.413Z" fill="#FFE1A2"/>
<path d="M136.562 106.948L138.257 104.09L141.74 103.469L140.676 105.261C139.316 105.867 137.944 106.431 136.562 106.948Z" fill="#DFAF80"/>
<path d="M81.1411 98.643C81.0723 98.6022 81.0052 98.5611 80.9387 98.5217C80.3049 98.1345 79.6711 97.7445 79.0394 97.3538C80.5757 96.27 81.9328 94.8847 83.0155 93.2252C87.4937 93.3786 91.9619 93.2276 96.0691 92.9271C96.2184 92.989 96.3688 93.0491 96.5185 93.1052C94.8626 93.5023 93.1416 93.6328 91.4445 93.4801C90.3712 93.3841 89.2078 93.1943 88.2796 93.7446C86.3275 94.902 86.8492 98.4041 84.7976 99.379C83.6239 99.9355 82.2762 99.3167 81.1411 98.643ZM114.518 90.3567C115.522 90.0371 116.835 88.3108 117.924 86.6086L122.558 85.7788C120.943 87.2046 119.328 88.6295 117.713 90.0572C117.23 90.4851 116.682 90.9381 116.035 90.9388C115.487 90.939 115.001 90.6136 114.518 90.3567Z" fill="#91D482"/>
<path d="M83.0152 93.2251C83.1052 93.0891 83.1924 92.95 83.277 92.8101L92.8857 91.0905C93.3214 91.4248 93.7825 91.7373 94.2664 92.0244C94.8535 92.3729 95.4563 92.6738 96.0688 92.9271C91.9616 93.2275 87.4934 93.3786 83.0152 93.2251ZM109.679 91.3145C111.089 90.292 112.327 88.9927 113.308 87.4349L117.924 86.6086C116.835 88.3107 115.522 90.037 114.518 90.3566C114.083 90.4934 112.336 90.8723 109.679 91.3145Z" fill="#FFC54D"/>
<path d="M94.2664 92.0241C93.7826 91.7369 93.3215 91.4245 92.8857 91.0902L113.308 87.4345C112.327 88.9923 111.089 90.2916 109.679 91.3141C105.929 94.0338 100.976 94.7757 96.5182 93.1048C96.3685 93.0487 96.2182 92.9886 96.0689 92.9267C95.4564 92.6734 94.8535 92.3725 94.2664 92.0241Z" fill="#DD7B81"/>
<path d="M76.8661 98.6329C75.3392 97.4045 73.8877 96.104 72.509 94.7382L83.2773 92.81C83.1927 92.9499 83.1055 93.0889 83.0155 93.225C81.9328 94.8846 80.5757 96.2698 79.0394 97.3536C78.3485 97.8411 77.6216 98.2692 76.8661 98.6329Z" fill="#DD7B81"/>
<path d="M72.5089 94.738C62.8737 85.193 56.8782 72.4546 54.8851 58.5421L55.9577 56.7348C59.1478 51.3597 66.0912 49.5906 71.4664 52.7808L126.021 85.1595L122.558 85.7784L117.924 86.6083L113.308 87.4346L92.8858 91.0903L83.2771 92.8098L72.5089 94.738ZM79.9499 78.9533C79.1726 78.4919 78.1688 78.7489 77.7073 79.5264C77.2459 80.3039 77.5024 81.306 78.2798 81.7674C79.056 82.2281 80.0596 81.9739 80.5211 81.1964C80.9825 80.4189 80.7262 79.414 79.9499 78.9533ZM70.9893 73.6351C70.3621 73.2628 69.5519 73.4706 69.179 74.099C68.8073 74.7252 69.0125 75.5368 69.6397 75.909C70.268 76.2819 71.0799 76.074 71.4515 75.4478C71.8245 74.8193 71.6176 74.008 70.9893 73.6351ZM62.9759 67.3426C62.3476 66.9697 61.5366 67.1788 61.1652 67.8045C60.7923 68.4328 60.998 69.2436 61.6263 69.6165C62.2535 69.9887 63.0649 69.7816 63.4378 69.1533C63.8092 68.5276 63.6031 67.7148 62.9759 67.3426ZM101.323 82.1571C100.545 81.6957 99.5412 81.9508 99.0797 82.7283C98.6183 83.5058 98.8754 84.5094 99.6528 84.9708C100.429 85.4315 101.432 85.1758 101.893 84.3983C102.355 83.6207 102.099 82.6178 101.323 82.1571ZM90.7525 74.347C90.1253 73.9748 89.3147 74.1806 88.9418 74.8089C88.5696 75.436 88.7764 76.2475 89.4036 76.6197C90.0319 76.9926 90.8422 76.7848 91.2144 76.1577C91.5873 75.5294 91.3808 74.72 90.7525 74.347ZM73.0693 63.1187C72.292 62.6573 71.2882 62.9143 70.8267 63.6918C70.3656 64.4689 70.6212 65.4723 71.3986 65.9337C72.176 66.3951 73.1793 66.1388 73.6405 65.3618C74.1019 64.5843 73.8467 63.58 73.0693 63.1187Z" fill="#FFE1A2"/>
<path d="M54.8853 58.5421C54.6766 57.0832 54.5118 55.6131 54.3914 54.131L55.0222 53.0682C58.2126 47.6927 65.1556 45.9215 70.5308 49.1117L130.051 84.437L126.022 85.1595L71.4666 52.7808C66.0914 49.5906 59.148 51.3597 55.9579 56.7348L54.8853 58.5421Z" fill="#DFAF80"/>
<path d="M89.4034 76.6197C88.7762 76.2475 88.5694 75.436 88.9416 74.8089C89.3145 74.1806 90.1251 73.9748 90.7522 74.347C91.3806 74.7199 91.5871 75.5294 91.2142 76.1577C90.842 76.7848 90.0317 76.9926 89.4034 76.6197Z" fill="#E9CB8D"/>
<path d="M69.6396 75.909C69.0124 75.5368 68.8072 74.7252 69.1788 74.0991C69.5518 73.4706 70.362 73.2629 70.9891 73.6351C71.6175 74.008 71.8243 74.8194 71.4514 75.4478C71.0797 76.074 70.2679 76.282 69.6396 75.909Z" fill="#E9CB8D"/>
<path d="M61.6261 69.6168C60.9977 69.2438 60.7921 68.4331 61.165 67.8047C61.5363 67.179 62.3473 66.9699 62.9756 67.3428C63.6028 67.7151 63.8089 68.5278 63.4376 69.1535C63.0646 69.7818 62.2532 69.989 61.6261 69.6168Z" fill="#E9CB8D"/>
<path d="M78.28 81.7676C77.5026 81.3062 77.2461 80.3042 77.7075 79.5267C78.169 78.7492 79.1728 78.4921 79.9501 78.9535C80.7264 79.4142 80.9827 80.4191 80.5213 81.1966C80.0598 81.9741 79.0562 82.2283 78.28 81.7676Z" fill="#E9CB8D"/>
<path d="M71.3986 65.9336C70.6212 65.4722 70.3656 64.4688 70.8267 63.6918C71.2882 62.9142 72.2919 62.6572 73.0693 63.1186C73.8467 63.58 74.1019 64.5842 73.6405 65.3617C73.1793 66.1388 72.176 66.395 71.3986 65.9336Z" fill="#E9CB8D"/>
<path d="M99.6527 84.9709C98.8753 84.5095 98.6182 83.5059 99.0797 82.7284C99.5411 81.9509 100.545 81.6958 101.323 82.1572C102.099 82.6179 102.355 83.6208 101.893 84.3984C101.432 85.1759 100.429 85.4316 99.6527 84.9709Z" fill="#E9CB8D"/>
<path d="M100.976 176.091L11.2261 122.824C5.10787 119.193 3.09055 111.288 6.7225 105.168L48.3376 35.0505C51.9695 28.9312 59.8747 26.9156 65.9929 30.5468C59.8747 26.9156 52.8469 29.4566 50.3843 35.9909L42.5773 56.7079L14.2981 104.356C11.0732 109.789 12.8629 116.808 18.2977 120.034L100.039 168.547C105.472 171.772 112.492 169.982 115.717 164.548L143.997 116.898L158.441 100.123C162.997 94.8311 161.862 87.4456 155.743 83.8137C161.862 87.4456 163.878 95.3496 160.247 101.469L118.631 171.587C115 177.706 107.095 179.723 100.976 176.091Z" fill="#5B9AB5"/>
<path d="M100.039 168.547L18.298 120.034C12.8631 116.808 11.0734 109.789 14.2984 104.356L42.5776 56.7078L27.6557 96.3042C27.2287 97.4364 27.0971 98.6641 27.2205 99.9112L25.2723 103.194L27.9214 102.719C28.9055 105.189 30.8098 107.49 33.33 108.986L48.0409 117.717C46.8452 118.772 45.6498 119.828 44.4557 120.884L36.9631 122.225L96.4818 157.549C101.857 160.74 108.8 158.968 111.99 153.593L113.505 151.042C114.627 150.556 115.614 149.863 116.386 148.966L143.998 116.898L115.717 164.548C112.492 169.982 105.473 171.772 100.039 168.547Z" fill="#96C1D3"/>
<path d="M44.4556 120.884C45.6496 119.828 46.845 118.773 48.0407 117.717L49.9143 118.829C49.631 119.225 49.3537 119.64 49.0883 120.053L44.4556 120.884Z" fill="#58AE44"/>
<path d="M49.0884 120.053C49.3538 119.64 49.6311 119.225 49.9144 118.829L51.3087 119.656L49.0884 120.053Z" fill="#E59A00"/>
<path d="M36.9629 122.225L44.4556 120.884L49.0883 120.053L51.3085 119.656L102.535 150.059C104.728 151.361 107.234 151.961 109.586 151.884C106.036 155.684 100.203 156.646 95.5463 153.883L40.9912 121.504L36.9629 122.225Z" fill="#E5BE6E"/>
<path d="M96.4816 157.55L36.9629 122.225L40.9912 121.504L95.5463 153.883C100.203 156.646 106.036 155.684 109.586 151.884C110.978 151.839 112.317 151.556 113.504 151.042L111.99 153.593C108.8 158.968 101.857 160.74 96.4816 157.55Z" fill="#BC7F42"/>
<path d="M25.272 103.194L27.2203 99.9113C27.3142 100.848 27.5531 101.796 27.9211 102.719L25.272 103.194Z" fill="#BC7F42"/>
</g>
<defs>
<filter id="filter0_d_66_610" x="4.91606" y="0" width="209.95" height="206.397" filterUnits="userSpaceOnUse" color-interpolation-filters="sRGB">
<feFlood flood-opacity="0" result="BackgroundImageFix"/>
<feColorMatrix in="SourceAlpha" type="matrix" values="0 0 0 0 0 0 0 0 0 0 0 0 0 0 0 0 0 0 127 0" result="hardAlpha"/>
<feOffset dx="20" dy="12"/>
<feGaussianBlur stdDeviation="8.25"/>
<feComposite in2="hardAlpha" operator="out"/>
<feColorMatrix type="matrix" values="0 0 0 0 0 0 0 0 0 0 0 0 0 0 0 0 0 0 0.25 0"/>
<feBlend mode="normal" in2="BackgroundImageFix" result="effect1_dropShadow_66_610"/>
<feBlend mode="normal" in="SourceGraphic" in2="effect1_dropShadow_66_610" result="shape"/>
</filter>
</defs>
</svg>
