<svg width="175" height="116" viewBox="0 0 175 116" fill="none" xmlns="http://www.w3.org/2000/svg">
<g opacity="0.8" filter="url(#filter0_d_66_464)">
<path d="M11.4235 33.2598L115.472 83.0338L127.439 58.0181L23.3903 8.24407L11.4235 33.2598Z" fill="#FFAC00"/>
<path d="M93.7532 56.6056C100.85 60.0004 109.198 57.6267 113.55 51.3741L85.4026 37.909C83.2658 45.2215 86.6579 53.2114 93.7532 56.6056Z" fill="#BF8000"/>
<path d="M16.4567 22.7383C24.2719 26.2552 33.5033 22.9189 37.2208 15.1478L37.3209 14.9076L23.3905 8.24366L16.4567 22.7383Z" fill="#BF8000"/>
<path d="M124.022 65.1612L127.439 58.0178L118.497 53.7404C118.665 58.0978 120.638 62.2667 124.022 65.1612Z" fill="#BF8000"/>
<path d="M45.6487 19.18C41.8766 27.0654 45.2106 36.5146 53.0961 40.2868C60.9816 44.059 70.4321 40.7256 74.2042 32.8402L74.3043 32.6L45.7705 18.9502L45.6487 19.18Z" fill="#BF8000"/>
<path d="M34.2377 33.2611C28.2634 30.4031 21.3969 31.6294 16.7755 35.8203L43.2034 48.4627C43.5654 42.2341 40.212 36.119 34.2377 33.2611Z" fill="#BF8000"/>
<path d="M119.673 74.2511C118.224 70.8009 115.57 67.8416 111.929 66.1C104.682 62.6333 96.1249 65.1805 91.8571 71.7354L115.473 83.0324L119.673 74.2511Z" fill="#BF8000"/>
<path d="M75.9407 47.7387C68.3751 44.1195 59.3829 47.0545 55.3341 54.2637L83.7934 67.8778C86.8655 60.2014 83.5075 51.3584 75.9407 47.7387Z" fill="#BF8000"/>
<path d="M7.56368 29.2965L11.4242 33.2582L23.3903 8.24381L17.8833 7.72416L7.56368 29.2965Z" fill="#8F6000"/>
<path d="M11.1435 4.49993L12.0243 6.99631L10.3433 7.58952L10.9362 9.27091L9.25481 9.86496L9.84814 11.5454L8.16745 12.138L8.76055 13.8189L7.0794 14.4125L7.6725 16.0934L5.99182 16.686L6.58399 18.3688L4.90331 18.9615L5.49634 20.6425L3.8152 21.2361L4.40852 22.9165L2.72761 23.5096L3.32047 25.191L0.823859 26.0723L7.56383 29.2965L17.8834 7.72414L11.1435 4.49993Z" fill="#BF8000"/>
<path d="M131.299 61.9794L127.439 58.0179L115.473 83.0322L120.98 83.5517L131.299 61.9794Z" fill="#8F6000"/>
<path d="M127.719 86.7756L126.838 84.2787L128.52 83.6855L127.926 82.0042L129.608 81.412L129.014 79.7302L130.696 79.1374L130.102 77.4566L131.784 76.8629L131.19 75.1811L132.872 74.5884L132.278 72.9067L133.96 72.314L133.366 70.6331L135.047 70.0409L134.454 68.3587L136.136 67.7655L135.542 66.0841L138.038 65.2033L131.299 61.9794L120.98 83.5518L127.719 86.7756Z" fill="#BF8000"/>
<path d="M102.182 69.797L30.0696 35.3005C26.2682 33.482 24.6457 28.8838 26.4638 25.0832C28.2821 21.2823 32.8799 19.6607 36.6813 21.4792L108.794 55.9757C112.594 57.7939 114.217 62.3914 112.399 66.1923C110.581 69.9929 105.983 71.6152 102.182 69.797Z" fill="white"/>
<path d="M45.2247 46.7923L43.133 45.7918C42.9438 44.0956 42.4819 42.4411 41.7704 40.8975L50.3222 44.9884C49.6558 45.5658 48.9501 46.0987 48.2126 46.5867C47.3224 47.1746 46.1869 47.2526 45.2247 46.7923ZM18.8992 34.1989L18.3707 33.9461C16.8648 33.2257 16.2271 31.422 16.9475 29.9161L19.8584 23.8311C22.4395 24.3471 25.0637 24.1983 27.5062 23.465C27.1005 23.9475 26.7481 24.4886 26.4638 25.0829C25.4207 27.2634 25.5102 29.7063 26.4935 31.7361C23.7933 31.8976 21.1745 32.7494 18.8992 34.1989ZM32.7245 20.7626C34.1574 19.6393 35.412 18.2556 36.4095 16.637L44.9986 20.7458C44.4996 22.1566 44.2124 23.6006 44.1242 25.0393L36.6813 21.4788C35.4064 20.8689 34.0438 20.6461 32.7245 20.7626Z" fill="#FFC54D"/>
<path d="M19.858 23.8311L24.4359 14.2614C25.1563 12.7555 26.9619 12.1176 28.4678 12.838L36.4092 16.6369C35.4116 18.2555 34.1571 19.6392 32.7241 20.7626C30.7244 20.9381 28.8285 21.8938 27.5059 23.4649C25.0633 24.1982 22.4392 24.347 19.858 23.8311Z" fill="#D2A64D"/>
<path d="M57.018 31.2073L44.124 25.0392C44.2122 23.6006 44.4995 22.1565 44.9985 20.7457L55.209 25.6301C56.1616 26.0858 56.8074 27.0068 56.9205 28.0556C57.0331 29.1056 57.0663 30.1577 57.018 31.2073Z" fill="#D2A64D"/>
<path d="M43.1329 45.792L18.8991 34.1992C21.1744 32.7497 23.7932 31.8979 26.4934 31.7364C27.2244 33.2449 28.4493 34.5254 30.0695 35.3004L41.7703 40.8977C42.4818 42.4414 42.9437 44.0959 43.1329 45.792Z" fill="#D2A64D"/>
<path d="M50.3222 44.9888L30.0696 35.3005C28.4494 34.5255 27.2245 33.245 26.4935 31.7365C25.5102 29.7067 25.4207 27.2638 26.4638 25.0832C26.7481 24.4889 27.1005 23.9479 27.5062 23.4653C28.8289 21.8943 30.7248 20.9386 32.7244 20.763C34.0438 20.6464 35.4063 20.8693 36.6813 21.4792L44.1242 25.0397L57.0181 31.2078C56.8998 33.7602 56.2944 36.2894 55.1488 38.6841C53.9677 41.1531 52.3156 43.2658 50.3222 44.9888Z" fill="white"/>
</g>
<defs>
<filter id="filter0_d_66_464" x="0.823859" y="0" width="173.715" height="115.275" filterUnits="userSpaceOnUse" color-interpolation-filters="sRGB">
<feFlood flood-opacity="0" result="BackgroundImageFix"/>
<feColorMatrix in="SourceAlpha" type="matrix" values="0 0 0 0 0 0 0 0 0 0 0 0 0 0 0 0 0 0 127 0" result="hardAlpha"/>
<feOffset dx="20" dy="12"/>
<feGaussianBlur stdDeviation="8.25"/>
<feComposite in2="hardAlpha" operator="out"/>
<feColorMatrix type="matrix" values="0 0 0 0 0 0 0 0 0 0 0 0 0 0 0 0 0 0 0.25 0"/>
<feBlend mode="normal" in2="BackgroundImageFix" result="effect1_dropShadow_66_464"/>
<feBlend mode="normal" in="SourceGraphic" in2="effect1_dropShadow_66_464" result="shape"/>
</filter>
</defs>
</svg>
