<svg width="282" height="256" viewBox="0 0 282 256" fill="none" xmlns="http://www.w3.org/2000/svg">
<g opacity="0.8" filter="url(#filter0_d_66_730)">
<path d="M18.0942 120.728L190.259 32.955L180.308 13.4364L8.14334 101.209L18.0942 120.728Z" fill="#006994"/>
<path d="M67.8809 218.386L240.047 130.613L230.096 111.094L57.93 198.868L67.8809 218.386Z" fill="#006994"/>
<path d="M69.6446 225.436L75.6698 227.322L76.3853 226.958L78.3983 220.973L84.4234 222.86L85.1393 222.495L87.1518 216.51L93.1769 218.397L93.8925 218.032L95.9054 212.048L101.931 213.934L102.646 213.57L104.659 207.585L110.684 209.472L111.4 209.107L113.412 203.122L119.438 205.009L120.153 204.644L122.166 198.66L128.191 200.546L128.906 200.182L130.92 194.197L136.945 196.083L137.66 195.719L139.673 189.734L145.698 191.621L146.413 191.256L148.427 185.271L154.452 187.158L155.167 186.793L157.18 180.809L163.205 182.695L163.921 182.331L165.934 176.346L171.959 178.233L172.675 177.868L174.687 171.883L180.712 173.77L181.427 173.405L183.441 167.421L189.466 169.307L190.182 168.942L192.194 162.958L198.22 164.844L198.935 164.48L200.948 158.495L206.974 160.381L207.689 160.017L209.702 154.032L215.727 155.919L216.442 155.554L218.456 149.57L224.481 151.456L225.196 151.092L227.209 145.107L233.234 146.994L233.949 146.629L235.962 140.644L241.987 142.531L242.702 142.166L244.716 136.182L244.825 136.217L240.047 130.614L67.8812 218.386L69.6092 225.545L69.6446 225.436Z" fill="#0084BA"/>
<path d="M228.395 129.274L73.641 208.17C67.2214 211.443 59.363 208.893 56.0898 202.472L14.0954 120.101C10.8227 113.681 13.3743 105.822 19.7939 102.55L174.548 23.6534C180.968 20.3802 188.826 22.9323 192.099 29.3515L234.093 111.723C237.366 118.144 234.815 126.001 228.395 129.274Z" fill="#00A0E1"/>
<path d="M58.7807 172.063C55.683 173.642 54.4524 177.433 56.0318 180.531L62.6237 193.461C65.4754 199.055 72.476 201.2 78.2589 198.252L217.657 127.184C223.44 124.236 225.815 117.311 222.963 111.718L216.371 98.7876C214.792 95.6897 211.002 94.4582 207.904 96.0376L58.7807 172.063Z" fill="#5FBBE1"/>
<path d="M178.545 6.3879L172.519 4.50002L171.804 4.86459L169.792 10.8505L163.766 8.96264L163.05 9.32782L161.038 15.3132L155.013 13.4253L154.298 13.7898L152.285 19.7758L146.258 17.8885L145.543 18.2531L143.531 24.2384L137.505 22.3511L136.79 22.7157L134.777 28.7017L128.751 26.8138L128.036 27.1783L126.023 33.1643L119.998 31.2764L119.283 31.641L117.27 37.6269L111.244 35.739L110.529 36.1036L108.517 42.0896L102.491 40.2018L101.776 40.5663L99.7631 46.5522L93.7373 44.6645L93.0217 45.0293L91.0094 51.015L84.9837 49.1272L84.2687 49.4917L82.2559 55.4777L76.2301 53.5899L75.515 53.9545L73.5024 59.9404L67.4766 58.0526L66.761 58.4174L64.7492 64.4029L58.723 62.5154L58.008 62.8799L55.9952 68.8658L49.9695 66.9781L49.2539 67.3429L47.2416 73.3286L41.2158 71.4408L40.5008 71.8053L38.4885 77.791L32.4623 75.9035L31.7472 76.2681L29.7345 82.254L23.7087 80.3663L22.9937 80.7308L20.9813 86.7165L14.9551 84.8289L14.2401 85.1935L12.2278 91.1792L6.2016 89.2916L5.48603 89.6565L3.47418 95.6419L3.36443 95.6066L8.14385 101.21L180.309 13.4373L178.581 6.27851L178.545 6.3879Z" fill="#0084BA"/>
<path d="M166.674 94.1516C178.669 117.68 169.319 146.476 145.792 158.471C122.265 170.465 93.4685 161.117 81.4734 137.588C69.479 114.062 78.8283 85.2655 102.356 73.2709C125.883 61.2763 154.68 70.6247 166.674 94.1516Z" fill="white"/>
<path d="M83.5298 140.479C83.5298 140.479 80.9964 147.545 82.6651 158.604C84.3322 169.663 89.3937 173.219 93.3929 169.737C97.3911 166.254 97.3159 159.435 103.741 153.633L83.5298 140.479Z" fill="#CC9A49"/>
<path d="M113.87 145.877L109.011 153.362C106.772 156.811 102.118 157.802 98.669 155.563L82.0835 144.798C78.6334 142.558 77.6439 137.905 79.8825 134.456L84.7406 126.97C86.9797 123.521 91.6333 122.531 95.0827 124.77L111.668 135.536C115.118 137.774 116.108 142.428 113.87 145.877Z" fill="#E6B463"/>
<path d="M125.189 144.162L118.184 149.99C114.203 153.301 108.237 152.753 104.926 148.774L86.5331 126.665C83.2217 122.686 83.7689 116.72 87.7495 113.408L94.7536 107.58C98.7341 104.268 104.701 104.815 108.012 108.796L126.405 130.904C129.716 134.884 129.17 140.85 125.189 144.162Z" fill="#CC9A49"/>
<path d="M167.805 97.5144C167.805 97.5144 175.012 99.6143 182.981 107.461C190.952 115.307 190.856 121.492 185.689 122.683C180.522 123.873 175.048 119.806 166.578 121.598L167.805 97.5144Z" fill="#CC9A49"/>
<path d="M154.352 125.238L163.264 125.703C167.37 125.917 170.905 122.734 171.119 118.627L172.149 98.8809C172.363 94.7731 169.179 91.2387 165.073 91.0245L156.161 90.5587C152.054 90.3446 148.519 93.5297 148.305 97.6363L147.275 117.382C147.061 121.489 150.246 125.024 154.352 125.238Z" fill="#E6B463"/>
<path d="M146.313 133.392L155.145 131.147C160.163 129.87 163.225 124.72 161.949 119.702L154.862 91.83C153.585 86.8132 148.435 83.7515 143.418 85.0269L134.586 87.2725C129.568 88.5483 126.507 93.6979 127.783 98.7165L134.87 126.589C136.146 131.606 141.295 134.668 146.313 133.392Z" fill="#CC9A49"/>
<path d="M145.627 143.313L133.624 149.433C127.282 152.666 119.448 150.122 116.215 143.782L98.9722 109.959C95.7396 103.619 98.2829 95.7847 104.625 92.5516L116.628 86.4322C122.969 83.1994 130.803 85.7426 134.036 92.0834L151.279 125.906C154.512 132.246 151.968 140.08 145.627 143.313Z" fill="#E6B463"/>
<path d="M131.719 137.34L129.07 138.69C125.513 140.504 121.118 139.078 119.305 135.52L105.37 108.188C103.557 104.631 104.984 100.236 108.541 98.4228L111.19 97.0721C114.748 95.2583 119.142 96.6849 120.956 100.243L134.89 127.574C136.704 131.132 135.277 135.526 131.719 137.34Z" fill="#F2C988"/>
<path d="M172.57 37.4746L149 49.4908L160.056 71.1765C164.099 74.4084 167.749 78.2201 170.852 82.584C173.325 83.5307 175.559 85.0588 177.385 87.0851C179.092 88.9805 180.328 91.1837 181.04 93.5532C183.052 94.8833 185.004 96.3892 186.897 98.0327L201.929 90.3689C206.605 87.9853 208.461 82.263 206.078 77.5875L188.218 42.5549C185.299 36.8306 178.294 34.5562 172.57 37.4746Z" fill="#5FBBE1"/>
<path d="M32.1423 109.067L55.7113 97.051L66.767 118.737C67.007 123.908 67.9491 129.1 69.6568 134.175C68.9697 136.733 68.8944 139.438 69.4623 142.106C69.9936 144.601 71.0504 146.895 72.5491 148.864C72.4435 151.274 72.5158 153.737 72.7338 156.235L57.7022 163.898C53.0273 166.282 47.3048 164.423 44.9212 159.748L27.061 124.715C24.1426 118.991 26.4177 111.985 32.1423 109.067Z" fill="#5FBBE1"/>
<path d="M228.395 129.274L73.641 208.17C73.2772 208.356 72.9091 208.522 72.5372 208.67C66.3456 211.141 59.1777 208.529 56.0898 202.472L14.0954 120.101C10.8379 113.711 13.3495 105.896 19.7029 102.596C13.3583 105.892 11.7834 113.223 16.0917 118.884L40.2989 150.682L44.9208 159.748C46.1883 162.234 48.3994 163.924 50.8957 164.602L57.3415 173.071C55.3406 174.938 54.7266 177.972 56.0316 180.532L62.6235 193.462C65.4753 199.055 72.4758 201.2 78.2587 198.252L217.657 127.184C223.44 124.236 225.815 117.311 222.963 111.718L216.371 98.7878C215.066 96.228 212.25 94.9429 209.563 95.4654L206.497 85.2741C207.414 82.8555 207.345 80.0737 206.078 77.5875L201.457 68.524L189.942 30.2521C187.892 23.4399 181.034 20.4083 174.638 23.6074C181.042 20.4041 188.841 22.962 192.099 29.3515L234.093 111.723C237.181 117.78 235.085 125.115 229.448 128.674C229.11 128.889 228.758 129.089 228.395 129.274Z" fill="#0090CA"/>
<path d="M217.657 127.184L78.2589 198.252C72.476 201.2 65.4754 199.055 62.6237 193.461L56.0318 180.531C54.7267 177.972 55.3408 174.938 57.3417 173.07L63.1425 180.69C66.2551 184.778 73.0049 185.848 78.2798 183.158L117.386 163.221C126.791 164.557 136.687 163.113 145.792 158.471C154.898 153.828 161.88 146.668 166.322 138.273L205.429 118.335C210.705 115.646 213.804 109.555 212.323 104.635L209.564 95.4652C212.25 94.9427 215.066 96.2278 216.371 98.7876L222.963 111.718C225.815 117.311 223.44 124.236 217.657 127.184Z" fill="#55A8CA"/>
<path d="M145.792 158.471C136.687 163.113 126.791 164.557 117.386 163.221L166.322 138.273C161.88 146.668 154.898 153.828 145.792 158.471Z" fill="#E5E5E5"/>
<path d="M206.498 85.2739L201.457 68.5238L206.078 77.5873C207.345 80.0735 207.414 82.8553 206.498 85.2739Z" fill="#55A8CA"/>
<path d="M50.8961 164.602C48.3998 163.923 46.1887 162.234 44.9212 159.748L40.2993 150.682L50.8961 164.602Z" fill="#55A8CA"/>
<path d="M78.1026 129.058C74.6617 128.769 71.2503 128.282 67.8787 127.601C67.2706 124.656 66.9033 121.693 66.7665 118.737L55.7108 97.051L32.1418 109.067C31.4698 109.409 30.8454 109.807 30.2712 110.254C28.9036 109.179 27.5639 108.062 26.2554 106.903C26.9426 106.328 27.6976 105.812 28.5305 105.387L171.712 32.3906C172.546 31.9655 173.407 31.6582 174.276 31.4397C174.446 33.179 174.563 34.9199 174.629 36.6582C173.93 36.8604 173.241 37.1324 172.57 37.4745L149 49.4908L160.056 71.1765C162.368 73.0236 164.55 75.0614 166.577 77.2835C165.147 80.4128 163.538 83.4587 161.75 86.4131C147.942 68.7107 123.102 62.6939 102.355 73.2708C81.61 83.8472 71.887 107.485 78.1026 129.058Z" fill="#33B3E7"/>
<path d="M158.981 90.7061L156.161 90.5588C155.588 90.5293 155.025 90.5647 154.481 90.6608C152.76 86.3481 148.033 83.8538 143.418 85.027L134.587 87.2726C133.899 87.448 133.248 87.696 132.64 88.0059C132.249 88.2056 131.874 88.4309 131.519 88.6793C127.653 84.9436 121.669 83.8625 116.628 86.4325L104.625 92.5518C99.5831 95.1221 96.9421 100.599 97.695 105.923C97.2855 106.065 96.8826 106.236 96.49 106.436C95.8827 106.746 95.2995 107.127 94.7536 107.58L87.7495 113.408C84.0886 116.454 83.3308 121.744 85.8097 125.671C85.4125 126.054 85.0535 126.489 84.7405 126.97L83.2034 129.339C81.4978 129.294 79.7968 129.2 78.1028 129.058C71.8872 107.485 81.6102 83.8473 102.356 73.2709C123.102 62.694 147.942 68.7108 161.75 86.4132C160.87 87.8679 159.946 89.2997 158.981 90.7061Z" fill="white"/>
<path d="M88.735 129.312C86.8896 129.379 85.0422 129.387 83.2033 129.338L84.7404 126.97C85.0534 126.489 85.4125 126.054 85.8097 125.67C86.0261 126.014 86.2669 126.346 86.5331 126.665L88.735 129.312Z" fill="#EBC382"/>
<path d="M107.465 126.618C101.263 128.201 94.9875 129.088 88.7353 129.313L86.5334 126.665C86.2672 126.346 86.0264 126.014 85.81 125.671C83.3311 121.744 84.0889 116.453 87.7497 113.408L94.7539 107.58C95.2998 107.127 95.883 106.745 96.4903 106.436C96.8829 106.236 97.2857 106.065 97.6953 105.923C97.8898 107.297 98.31 108.66 98.9725 109.959L107.465 126.618Z" fill="#D6AE6D"/>
<path d="M155.71 95.1675L154.862 91.8301C154.759 91.4278 154.632 91.0376 154.481 90.6607C155.025 90.5646 155.588 90.5292 156.161 90.5587L158.981 90.706C157.94 92.2228 156.848 93.7137 155.71 95.1675Z" fill="#EBC382"/>
<path d="M142.528 108.741L134.036 92.0836C133.373 90.7841 132.517 89.6432 131.519 88.6792C131.874 88.4308 132.249 88.2055 132.64 88.0058C133.248 87.6959 133.899 87.4479 134.587 87.2725L143.418 85.027C148.033 83.8537 152.76 86.348 154.481 90.6607C154.632 91.0376 154.759 91.4278 154.862 91.8301L155.71 95.1675C151.856 100.096 147.453 104.653 142.528 108.741Z" fill="#D6AE6D"/>
<path d="M129.788 117.567L120.956 100.243C119.142 96.6852 114.748 95.2586 111.191 97.0724L108.541 98.4231C104.984 100.237 103.557 104.631 105.371 108.188L113.811 124.744C111.706 125.452 109.591 126.075 107.465 126.618L98.9725 109.96C98.31 108.66 97.8898 107.297 97.6953 105.924C96.9424 100.599 99.5834 95.1223 104.625 92.552L116.628 86.4326C121.669 83.8627 127.654 84.9438 131.519 88.6795C132.517 89.6435 133.374 90.7843 134.036 92.0838L142.528 108.741C138.605 112 134.353 114.958 129.788 117.567Z" fill="#EBC382"/>
<path d="M125.985 119.62C121.998 121.653 117.928 123.358 113.811 124.743L105.37 108.188C103.557 104.63 104.984 100.236 108.541 98.4228L111.19 97.0721C114.748 95.2583 119.142 96.6849 120.956 100.243L129.788 117.566C128.544 118.277 127.275 118.963 125.985 119.62Z" fill="#F5D4A0"/>
<path d="M166.577 77.2837C164.551 75.0616 162.368 73.0238 160.056 71.1766L149 49.4909L172.57 37.4747C173.241 37.1325 173.93 36.8606 174.629 36.6583C175.164 50.7096 172.356 64.638 166.577 77.2837Z" fill="#7FC9E7"/>
<path d="M67.8791 127.601C54.2504 124.85 41.3292 118.941 30.2716 110.254C30.8458 109.807 31.4702 109.409 32.1422 109.067L55.7112 97.0509L66.7669 118.737C66.9037 121.693 67.271 124.656 67.8791 127.601Z" fill="#7FC9E7"/>
</g>
<defs>
<filter id="filter0_d_66_730" x="3.36426" y="0" width="277.961" height="255.822" filterUnits="userSpaceOnUse" color-interpolation-filters="sRGB">
<feFlood flood-opacity="0" result="BackgroundImageFix"/>
<feColorMatrix in="SourceAlpha" type="matrix" values="0 0 0 0 0 0 0 0 0 0 0 0 0 0 0 0 0 0 127 0" result="hardAlpha"/>
<feOffset dx="20" dy="12"/>
<feGaussianBlur stdDeviation="8.25"/>
<feComposite in2="hardAlpha" operator="out"/>
<feColorMatrix type="matrix" values="0 0 0 0 0 0 0 0 0 0 0 0 0 0 0 0 0 0 0.25 0"/>
<feBlend mode="normal" in2="BackgroundImageFix" result="effect1_dropShadow_66_730"/>
<feBlend mode="normal" in="SourceGraphic" in2="effect1_dropShadow_66_730" result="shape"/>
</filter>
</defs>
</svg>
