<svg width="181" height="188" viewBox="0 0 181 188" fill="none" xmlns="http://www.w3.org/2000/svg">
<g opacity="0.8" filter="url(#filter0_d_66_514)">
<path d="M32.964 39.4443L130.195 71.5706L137.069 50.7674L39.8376 18.6412L32.964 39.4443Z" fill="#4F879E"/>
<path d="M129.644 64.3699L37.697 33.9895C34.9776 33.091 33.4886 30.1346 34.3871 27.4152C35.2848 24.6983 38.2429 23.2085 40.9623 24.107L132.909 54.4873C135.627 55.3854 137.116 58.3444 136.218 61.0612C135.319 63.7806 132.362 65.268 129.644 64.3699Z" fill="#28434F"/>
<path d="M40.6692 5.13362L39.8375 18.6413L137.069 50.7676L144.448 39.4234L144.447 39.423C143.739 38.0166 142.502 36.9493 141.006 36.4549L45.2014 4.79997C43.7062 4.30595 42.0757 4.42578 40.6692 5.13362Z" fill="#65ABC9"/>
<path d="M91.3822 158.414L12.3967 132.317C5.63995 130.084 1.97285 122.797 4.2054 116.041L29.786 38.6201C32.0185 31.8633 39.3049 28.1961 46.0616 30.4286L125.047 56.5264C131.803 58.7584 135.471 66.0452 133.239 72.802L107.658 150.222C105.425 156.979 98.1377 160.646 91.3822 158.414Z" fill="#65ABC9"/>
<path d="M88.845 151.248L18.7027 128.072C12.703 126.09 9.44601 119.619 11.4284 113.619L34.1454 44.8653C36.1277 38.8658 42.5989 35.6089 48.5985 37.5912L118.741 60.7671C124.742 62.7498 127.999 69.221 126.016 75.2205L103.299 143.974C101.317 149.974 94.8459 153.231 88.845 151.248Z" fill="#A7D7EB"/>
<path d="M64.5508 107.044C57.5788 104.74 53.7959 97.2216 56.0996 90.2495C58.4032 83.2775 65.9206 79.4933 72.8925 81.7969C79.8645 84.1006 83.6501 91.6194 81.3465 98.5914C79.0428 105.563 71.5227 109.347 64.5508 107.044ZM81.8519 54.6813C59.9042 47.4295 36.2357 59.3427 28.984 81.2902C21.7321 103.238 33.6441 126.906 55.5918 134.158C77.5395 141.41 101.209 129.498 108.461 107.55C115.712 85.6027 103.8 61.933 81.8519 54.6813Z" fill="#FFD47A"/>
<path d="M64.5504 107.044C57.5785 104.74 53.7956 97.2215 56.0992 90.2494C58.4028 83.2775 65.9202 79.4933 72.8922 81.7969C79.8641 84.1005 83.6497 91.6194 81.3461 98.5913C79.0425 105.563 71.5224 109.347 64.5504 107.044ZM103.516 96.7779C104.217 94.0301 101.789 91.4375 101.627 88.6061C101.476 85.9892 103.281 83.5664 103.187 80.9474C103.067 77.5817 99.9077 75.1301 96.7758 73.8947C95.8143 73.5155 94.8197 73.1978 93.825 72.8807C91.5847 72.164 89.3468 71.4487 87.4938 70.0319C84.4485 67.7015 82.8165 63.7328 79.4469 61.9036C75.8582 59.9555 71.5335 61.1661 67.2194 62.3823C62.8073 63.6233 58.4062 64.8694 54.8128 62.7443C53.0722 62.0072 50.5778 63.9975 49.6545 65.6486C48.7321 67.2971 48.3717 69.2421 47.2663 70.7771C45.6785 72.9818 42.7694 74.0343 41.428 76.3984C39.2851 80.1724 42.1953 84.8623 41.7623 89.182C41.2762 94.0191 36.7934 97.3951 34.8108 101.832C31.8016 108.563 35.9739 117.496 43.0682 119.509C44.4265 119.895 45.8627 120.062 47.1262 120.692C49.1794 121.711 50.4695 123.769 52.0782 125.403C55.4896 128.865 60.3428 130.403 64.9926 131.821C68.3717 132.852 72.0899 133.873 75.3465 132.5C79.3218 130.825 81.2593 126.143 85.0545 124.092C86.1197 123.516 87.3027 123.165 88.3294 122.523C91.8397 120.326 92.4858 115.621 93.6079 111.634C94.7156 107.687 96.6776 103.886 99.7501 101.17C101.22 99.8697 103.031 98.6791 103.516 96.7779Z" fill="#9C000A"/>
<path d="M61.036 68.394C60.934 68.1076 61.0845 67.7881 61.3723 67.6862L63.112 67.0664C63.3976 66.9627 63.7168 67.1143 63.82 67.4012C63.9214 67.6893 63.7702 68.0068 63.482 68.1096L61.7453 68.7293C61.4571 68.8321 61.1379 68.6806 61.036 68.394Z" fill="#CF424B"/>
<path d="M74.5438 78.5376C74.4422 78.25 74.5923 77.9316 74.8805 77.8288L76.619 77.208C76.9066 77.1067 77.2245 77.2583 77.3265 77.5444C77.4297 77.8312 77.278 78.1503 76.9914 78.2526L75.2518 78.8724C74.9649 78.9757 74.6457 78.8241 74.5438 78.5376Z" fill="#CF424B"/>
<path d="M96.5377 84.5736C96.4348 84.2856 96.5863 83.9676 96.8731 83.8644L98.6112 83.245C98.8993 83.1422 99.2171 83.2939 99.3203 83.5809C99.4219 83.8683 99.2717 84.1868 98.9841 84.2882L97.2442 84.9086C96.9574 85.0118 96.6396 84.8602 96.5377 84.5736Z" fill="#CF424B"/>
<path d="M92.3374 101.367C92.2367 101.081 92.3869 100.762 92.675 100.659L94.4134 100.039C94.7 99.9367 95.0195 100.087 95.121 100.375C95.223 100.661 95.0729 100.98 94.7847 101.083L93.0449 101.703C92.7598 101.805 92.4403 101.655 92.3374 101.367Z" fill="#62C24C"/>
<path d="M76.6574 125.359C76.556 125.071 76.7065 124.752 76.9941 124.651L78.7339 124.03C79.0203 123.928 79.3383 124.08 79.4418 124.366C79.5434 124.653 79.3916 124.972 79.1048 125.075L77.3655 125.694C77.0785 125.797 76.7611 125.645 76.6574 125.359Z" fill="white"/>
<path d="M59.0635 78.4528C58.9606 78.1648 59.112 77.8468 59.3986 77.7446L61.1382 77.1247C61.4251 77.0214 61.7431 77.1726 61.8462 77.4596C61.9477 77.7475 61.7976 78.0656 61.5095 78.1684L59.7702 78.7873C59.4833 78.8905 59.1654 78.7394 59.0635 78.4528Z" fill="white"/>
<path d="M85.7725 116.085C85.6704 115.799 85.821 115.479 86.1087 115.378L87.8484 114.757C88.1336 114.655 88.4532 114.806 88.5563 115.093C88.6579 115.38 88.5065 115.698 88.2189 115.799L86.4812 116.422C86.1934 116.524 85.8744 116.371 85.7725 116.085Z" fill="#62C24C"/>
<path d="M89.3923 76.5821C89.2891 76.2952 89.4405 75.9771 89.7274 75.8739L91.467 75.2539C91.7535 75.1517 92.0731 75.3023 92.1745 75.5904C92.2764 75.8769 92.1265 76.1949 91.8383 76.2977L90.0998 76.9185C89.8134 77.0202 89.4938 76.8697 89.3923 76.5821Z" fill="#62C24C"/>
<path d="M42.857 82.9122C43.0473 82.6761 43.3985 82.6374 43.6359 82.8283L45.0751 83.9846C45.3126 84.1754 45.3515 84.5252 45.1607 84.7626C44.9699 85.0002 44.6187 85.0389 44.3813 84.848L42.9417 83.6927C42.7046 83.5008 42.6658 83.1507 42.857 82.9122Z" fill="#CF424B"/>
<path d="M41.6066 96.9861C41.8537 97.1648 41.9098 97.5136 41.7317 97.7592L40.6474 99.2559C40.4681 99.5011 40.1199 99.5561 39.8729 99.3774C39.6269 99.1996 39.5708 98.8509 39.7501 98.6057L40.8345 97.1089C41.0127 96.8627 41.3599 96.8063 41.6066 96.9861Z" fill="#62C24C"/>
<path d="M49.8138 108.479C50.1088 108.559 50.2829 108.865 50.2044 109.158L49.7195 110.94C49.6377 111.234 49.3324 111.41 49.0388 111.33C48.7451 111.25 48.5694 110.944 48.6499 110.649L49.1334 108.867C49.2149 108.574 49.5214 108.399 49.8138 108.479Z" fill="white"/>
<path d="M48.3064 74.2816C48.0429 74.1271 47.9564 73.7853 48.1116 73.5239L49.049 71.9319C49.2044 71.67 49.5465 71.5824 49.8095 71.7384C50.0705 71.892 50.1596 72.2342 50.0043 72.496L49.0648 74.0858C48.9104 74.349 48.5694 74.4377 48.3064 74.2816Z" fill="white"/>
<path d="M45.2335 103.255C44.9703 103.099 44.8833 102.759 45.0374 102.496L45.976 100.905C46.1313 100.644 46.4735 100.556 46.7357 100.71C46.9976 100.865 47.0853 101.207 46.9312 101.47L45.9914 103.06C45.8366 103.321 45.4952 103.41 45.2335 103.255Z" fill="#CF424B"/>
<path d="M55.5363 70.429C55.7774 70.2433 56.1275 70.2888 56.3132 70.53L57.4424 71.9914C57.6282 72.2321 57.5827 72.5824 57.3412 72.7692C57.1001 72.955 56.75 72.9096 56.5642 72.6687L55.435 71.2073C55.2506 70.9665 55.2948 70.6159 55.5363 70.429Z" fill="#62C24C"/>
<path d="M71.107 67.0297C71.3481 66.844 71.6981 66.8894 71.8838 67.1307L73.013 68.592C73.1976 68.8324 73.1534 69.1831 72.9119 69.3699C72.6708 69.5557 72.3207 69.5103 72.1348 69.2695L71.0056 67.8081C70.8204 67.5654 70.8655 67.2166 71.107 67.0297Z" fill="#62C24C"/>
<path d="M68.9643 74.2164C69.2261 74.372 69.3143 74.7127 69.1599 74.976L68.2204 76.5658C68.0658 76.8295 67.7242 76.9158 67.4611 76.7601C67.2001 76.6065 67.1107 76.2648 67.2664 76.002L68.2046 74.4119C68.3603 74.149 68.7021 74.0624 68.9643 74.2164Z" fill="#62C24C"/>
<path d="M85.8048 105.408C86.0678 105.564 86.1561 105.905 86.0017 106.168L85.0621 107.758C84.9076 108.022 84.566 108.108 84.3041 107.953C84.0418 107.799 83.9525 107.457 84.1082 107.194L85.0464 105.604C85.2018 105.342 85.5439 105.255 85.8048 105.408Z" fill="#CF424B"/>
<path d="M68.5807 111.489C68.8442 111.643 68.9308 111.985 68.778 112.247L67.8385 113.837C67.6828 114.1 67.3418 114.189 67.0801 114.033C66.8169 113.877 66.7288 113.536 66.8842 113.274L67.8223 111.685C67.9781 111.421 68.3202 111.334 68.5807 111.489Z" fill="white"/>
<path d="M46.5779 114.476C46.8396 114.632 46.9291 114.973 46.7738 115.235L45.834 116.826C45.6799 117.088 45.3378 117.176 45.0755 117.022C44.8136 116.867 44.7259 116.524 44.88 116.262L45.8185 114.671C45.9734 114.411 46.316 114.321 46.5779 114.476Z" fill="white"/>
<path d="M90.7283 81.4074C90.99 81.563 91.0782 81.9037 90.9226 82.1666L89.9843 83.7568C89.8285 84.0201 89.4881 84.1068 89.2263 83.9516C88.9628 83.7971 88.876 83.4563 89.0317 83.1934L89.9686 81.603C90.1243 81.34 90.4648 81.253 90.7283 81.4074Z" fill="white"/>
<path d="M85.8591 96.1458C86.1213 96.2999 86.2091 96.6421 86.0537 96.904L85.1152 98.4951C84.9604 98.7554 84.619 98.8451 84.3571 98.69C84.0941 98.5339 84.0071 98.1937 84.1625 97.9318L85.0998 96.3403C85.2551 96.0785 85.596 95.9903 85.8591 96.1458Z" fill="white"/>
<path d="M72.576 116.882C72.8379 117.037 72.9274 117.378 72.7716 117.641L71.8325 119.23C71.6781 119.493 71.3371 119.582 71.0736 119.427C70.8106 119.271 70.7242 118.929 70.8782 118.667L71.8163 117.077C71.9721 116.814 72.3137 116.728 72.576 116.882Z" fill="#62C24C"/>
<path d="M63.4047 116.969C63.6665 117.124 63.7543 117.466 63.5984 117.729L62.6607 119.318C62.505 119.581 62.1645 119.668 61.9023 119.514C61.6388 119.359 61.5523 119.018 61.7064 118.755L62.6457 117.166C62.8015 116.903 63.1406 116.816 63.4047 116.969Z" fill="white"/>
<path d="M78.0819 109.317C78.3451 109.472 78.4319 109.813 78.2762 110.076L77.3393 111.667C77.1841 111.928 76.8414 112.017 76.5795 111.862C76.3178 111.707 76.2296 111.366 76.3841 111.102L77.3235 109.513C77.4788 109.251 77.8197 109.163 78.0819 109.317Z" fill="#62C24C"/>
<path d="M53.4312 101.173C53.6944 101.329 53.7825 101.67 53.6281 101.933L52.6886 103.523C52.5334 103.784 52.1921 103.874 51.9302 103.719C51.6672 103.563 51.5802 103.222 51.7348 102.959L52.6729 101.369C52.8282 101.107 53.1703 101.019 53.4312 101.173Z" fill="#62C24C"/>
<path d="M86.291 87.2223C86.5529 87.3774 86.641 87.7186 86.4866 87.9819L85.5471 89.5715C85.3917 89.8335 85.0522 89.9219 84.7887 89.7675C84.5257 89.6115 84.4387 89.2712 84.5943 89.0083L85.5314 87.4177C85.6867 87.1559 86.0288 87.0681 86.291 87.2223Z" fill="#62C24C"/>
<path d="M82.8969 80.0653C83.1604 80.2199 83.2469 80.5616 83.0915 80.8236L82.1542 82.4151C81.9994 82.6754 81.6568 82.7647 81.3951 82.6091C81.1332 82.4539 81.0446 82.1141 81.199 81.8509L82.1385 80.2613C82.2942 79.9984 82.6339 79.9093 82.8969 80.0653Z" fill="white"/>
<path d="M40.731 108.183C40.9727 107.995 41.3228 108.041 41.5084 108.282L42.6373 109.744C42.823 109.986 42.778 110.334 42.5363 110.522C42.2954 110.707 41.9453 110.661 41.7594 110.421L40.6315 108.96C40.4458 108.719 40.4901 108.368 40.731 108.183Z" fill="#62C24C"/>
<path d="M48.0045 78.8889C48.2456 78.703 48.5957 78.7485 48.7814 78.9899L49.9106 80.4512C50.0963 80.6925 50.0509 81.0422 49.8098 81.228C49.5681 81.4153 49.2181 81.3698 49.0324 81.1286L47.9037 79.6657C47.7178 79.425 47.7629 79.0762 48.0045 78.8889Z" fill="#62C24C"/>
<path d="M81.3954 71.5574C81.6366 71.3715 81.9854 71.4165 82.1725 71.6577L83.3005 73.1187C83.4874 73.3604 83.4419 73.7106 83.2009 73.896C82.9593 74.0832 82.6092 74.0378 82.4235 73.7966L81.2946 72.3342C81.1089 72.0929 81.154 71.7441 81.3954 71.5574Z" fill="white"/>
<path d="M92.2803 90.4093C92.5212 90.224 92.8713 90.2695 93.0572 90.5102L94.1859 91.9731C94.3717 92.2138 94.3265 92.5632 94.0851 92.7499C93.8439 92.9358 93.4948 92.8917 93.3077 92.6505L92.1802 91.1881C91.9946 90.9468 92.0386 90.5966 92.2803 90.4093Z" fill="#62C24C"/>
<path d="M78.5667 116.316C78.8079 116.13 79.1583 116.175 79.3454 116.416L80.4728 117.879C80.6587 118.119 80.6131 118.47 80.372 118.655C80.1309 118.841 79.7817 118.797 79.5947 118.556L78.4677 117.092C78.2806 116.851 78.3256 116.502 78.5667 116.316Z" fill="white"/>
<path d="M64.8809 123.669C65.122 123.484 65.4708 123.529 65.6577 123.77L66.7857 125.231C66.9715 125.472 66.9273 125.823 66.6861 126.009C66.4447 126.195 66.0946 126.15 65.9087 125.909L64.78 124.446C64.5943 124.205 64.6394 123.856 64.8809 123.669Z" fill="#CF424B"/>
<path d="M58.6725 108.863C58.9147 108.678 59.264 108.722 59.4507 108.965L60.5786 110.426C60.7656 110.667 60.7189 111.017 60.4778 111.202C60.2361 111.39 59.8873 111.345 59.7016 111.103L58.5745 109.64C58.3876 109.398 58.4314 109.049 58.6725 108.863Z" fill="#62C24C"/>
<path d="M55.5175 119.764C55.7944 119.891 55.9193 120.218 55.7935 120.497L55.0326 122.179C54.9068 122.458 54.5766 122.582 54.2993 122.456C54.0219 122.331 53.8979 122.001 54.0219 121.724L54.7845 120.04C54.9095 119.764 55.2388 119.639 55.5175 119.764Z" fill="#62C24C"/>
<path d="M49.6443 95.5106C49.8855 95.3247 50.2355 95.3702 50.4212 95.6114L51.5501 97.0738C51.7358 97.315 51.6907 97.6639 51.4492 97.8507C51.2081 98.0365 50.8575 97.9925 50.6724 97.7498L49.5443 96.2893C49.3586 96.0481 49.4029 95.6973 49.6443 95.5106Z" fill="white"/>
<path d="M52.9977 85.3621C53.2393 85.1749 53.5894 85.2203 53.7751 85.4616L54.9038 86.9245C55.0896 87.1652 55.0441 87.5155 54.8029 87.7014C54.5623 87.8857 54.2117 87.8417 54.026 87.6004L52.8986 86.1379C52.7127 85.8972 52.757 85.5465 52.9977 85.3621Z" fill="white"/>
<path d="M54.5821 112.84C54.8245 112.655 55.1733 112.7 55.359 112.941L56.4882 114.403C56.6739 114.644 56.6285 114.994 56.3874 115.179C56.1459 115.366 55.7958 115.321 55.61 115.08L54.4826 113.617C54.2969 113.376 54.3406 113.027 54.5821 112.84Z" fill="#CF424B"/>
<path d="M45.7115 90.0308C45.9531 89.8435 46.3027 89.8904 46.4884 90.1317L47.6165 91.5922C47.8022 91.8334 47.7567 92.1838 47.5155 92.3695C47.2741 92.5564 46.9257 92.5098 46.7399 92.2691L45.612 90.8081C45.425 90.5663 45.4705 90.2161 45.7115 90.0308Z" fill="#62C24C"/>
<path d="M62.4138 113.511C51.8716 110.028 46.1488 98.6571 49.6326 88.1135C51.2635 83.1775 54.6234 79.2983 58.8171 76.9248C59.1187 77.1638 59.4239 77.3963 59.7314 77.6257L59.3987 77.7445C59.1121 77.8467 58.9607 78.1648 59.0636 78.4528C59.1221 78.6197 59.2548 78.7409 59.4118 78.7928C59.5245 78.83 59.6507 78.8306 59.7703 78.7872L60.8204 78.414C62.4129 79.5315 64.0811 80.5429 65.8236 81.4444C61.4133 82.4336 57.6203 85.6471 56.0994 90.2502C53.7957 97.2222 57.5786 104.741 64.5506 107.044C71.5225 109.348 79.0426 105.564 81.3463 98.592C82.8672 93.9889 81.7341 89.1478 78.7813 85.7257C81.5441 86.1741 84.3253 86.3503 87.0999 86.2698C89.0556 90.674 89.4427 95.7924 87.8118 100.728C87.2624 102.391 86.5169 103.933 85.6103 105.339C85.3922 105.306 85.1643 105.405 85.0464 105.604L84.1082 107.194C84.0591 107.279 84.0345 107.371 84.0314 107.461C78.8851 113.5 70.4125 116.154 62.4138 113.511ZM68.4732 111.441C68.2326 111.362 67.9568 111.457 67.8224 111.685L66.8843 113.275C66.729 113.537 66.8171 113.878 67.0802 114.034C67.114 114.055 67.1494 114.071 67.1874 114.083C67.4292 114.163 67.703 114.065 67.8386 113.838L68.7781 112.248C68.9309 111.985 68.8443 111.644 68.5808 111.489C68.5467 111.469 68.5099 111.453 68.4732 111.441ZM59.1868 108.777C59.0171 108.721 58.8242 108.748 58.6723 108.864C58.4311 109.05 58.3873 109.399 58.5743 109.641L59.7014 111.104C59.7712 111.194 59.8641 111.257 59.9654 111.291C60.1338 111.347 60.3264 111.32 60.4776 111.203C60.7187 111.017 60.7653 110.668 60.5784 110.426L59.4504 108.965C59.3807 108.875 59.2881 108.811 59.1868 108.777ZM77.9754 109.27C77.7336 109.19 77.4578 109.285 77.3234 109.514L76.384 111.103C76.2295 111.367 76.3177 111.707 76.5794 111.863C76.6149 111.883 76.65 111.9 76.6868 111.912C76.9286 111.992 77.2036 111.895 77.3392 111.667L78.2761 110.077C78.4318 109.814 78.345 109.473 78.0818 109.318C78.0477 109.298 78.0121 109.282 77.9754 109.27ZM53.3261 101.126C53.0843 101.046 52.8084 101.141 52.6728 101.369L51.7347 102.958C51.5801 103.222 51.6671 103.563 51.9301 103.719C51.9643 103.738 52.0007 103.756 52.0374 103.768C52.2792 103.848 52.5543 103.75 52.6885 103.523L53.628 101.933C53.7824 101.67 53.6943 101.328 53.4312 101.173C53.3971 101.153 53.3615 101.137 53.3261 101.126ZM50.1573 95.4248C49.9889 95.3692 49.795 95.3951 49.6443 95.511C49.4029 95.6978 49.3586 96.0485 49.5443 96.2898L50.6724 97.7502C50.7422 97.8407 50.8351 97.9038 50.9364 97.9373C51.106 97.9933 51.2987 97.967 51.4493 97.8512C51.6907 97.6643 51.7358 97.3155 51.5501 97.0743L50.4212 95.6119C50.3514 95.5214 50.2585 95.4583 50.1573 95.4248ZM85.7503 96.0962C85.5085 96.0163 85.2352 96.1125 85.0995 96.3403L84.1623 97.9318C84.0069 98.1937 84.0939 98.5339 84.3569 98.69C84.3908 98.7105 84.4275 98.727 84.4642 98.7391C84.7047 98.8186 84.9811 98.7217 85.1149 98.4951L86.0535 96.904C86.2088 96.642 86.1211 96.2999 85.8589 96.1457C85.8233 96.1258 85.787 96.1084 85.7503 96.0962ZM53.5122 85.2753C53.3425 85.2193 53.1486 85.2452 52.9975 85.3625C52.7569 85.5469 52.7126 85.8976 52.8984 86.1383L54.0258 87.6008C54.0957 87.6913 54.1873 87.754 54.2886 87.7875C54.4582 87.8435 54.6521 87.8176 54.8027 87.7018C55.0439 87.5159 55.0894 87.1656 54.9036 86.9249L53.7749 85.462C53.7063 85.3719 53.6135 85.3088 53.5122 85.2753ZM86.1843 87.1752C85.9425 87.0953 85.6667 87.1907 85.5311 87.4184L84.594 89.009C84.4384 89.2718 84.5254 89.6122 84.7884 89.7682C84.8227 89.7876 84.858 89.8038 84.8947 89.8159C85.1365 89.8958 85.4126 89.8 85.5468 89.5722L86.4863 87.9826C86.6407 87.7193 86.5526 87.3781 86.2907 87.223C86.2566 87.2029 86.221 87.1873 86.1843 87.1752Z" fill="#7D0008"/>
<path d="M59.412 78.792C59.255 78.7401 59.1223 78.6189 59.0637 78.452C58.9609 78.164 59.1123 77.846 59.3988 77.7438L59.7316 77.625C60.0894 77.8934 60.4531 78.1568 60.8206 78.4132L59.7705 78.7865C59.6508 78.8298 59.5246 78.8292 59.412 78.792Z" fill="#CCCCCC"/>
<path d="M84.0316 107.46C84.0346 107.37 84.0593 107.279 84.1084 107.194L85.0466 105.604C85.1645 105.404 85.3923 105.305 85.6104 105.338C85.1275 106.086 84.6003 106.793 84.0316 107.46Z" fill="#A6353C"/>
<path d="M67.1874 114.083C67.1494 114.07 67.114 114.054 67.0802 114.033C66.8171 113.878 66.729 113.537 66.8844 113.275L67.8224 111.685C67.9568 111.457 68.2327 111.362 68.4732 111.441C68.5099 111.453 68.5467 111.469 68.5809 111.489C68.8443 111.644 68.931 111.985 68.7782 112.248L67.8387 113.838C67.703 114.065 67.4292 114.163 67.1874 114.083Z" fill="#CCCCCC"/>
<path d="M84.4645 98.7389C84.4278 98.7268 84.3911 98.7103 84.3572 98.6898C84.0942 98.5337 84.0072 98.1935 84.1626 97.9315L85.0999 96.34C85.2355 96.1123 85.5088 96.0161 85.7506 96.096C85.7873 96.1081 85.8237 96.1256 85.8592 96.1455C86.1214 96.2997 86.2092 96.6418 86.0538 96.9038L85.1153 98.4949C84.9814 98.7215 84.705 98.8184 84.4645 98.7389Z" fill="#CCCCCC"/>
<path d="M76.687 111.912C76.6503 111.9 76.6152 111.883 76.5797 111.863C76.3179 111.707 76.2297 111.366 76.3843 111.103L77.3236 109.513C77.458 109.285 77.7338 109.19 77.9756 109.27C78.0124 109.282 78.048 109.298 78.082 109.318C78.3452 109.473 78.432 109.814 78.2763 110.077L77.3394 111.667C77.2039 111.895 76.9288 111.992 76.687 111.912Z" fill="#4E9B3D"/>
<path d="M52.0376 103.767C52.0009 103.755 51.9645 103.738 51.9303 103.718C51.6673 103.562 51.5804 103.222 51.7349 102.958L52.673 101.368C52.8086 101.141 53.0845 101.045 53.3263 101.125C53.3617 101.137 53.3973 101.153 53.4314 101.173C53.6945 101.328 53.7826 101.669 53.6282 101.933L52.6887 103.522C52.5545 103.75 52.2794 103.847 52.0376 103.767Z" fill="#4E9B3D"/>
<path d="M84.8949 89.8156C84.8582 89.8035 84.8228 89.7873 84.7885 89.7678C84.5255 89.6119 84.4386 89.2715 84.5942 89.0087L85.5312 87.4181C85.6669 87.1903 85.9427 87.095 86.1845 87.1749C86.2212 87.187 86.2568 87.2026 86.2909 87.2227C86.5528 87.3777 86.6408 87.719 86.4864 87.9822L85.547 89.5719C85.4127 89.7997 85.1367 89.8955 84.8949 89.8156Z" fill="#4E9B3D"/>
<path d="M59.9657 111.29C59.8644 111.257 59.7714 111.194 59.7016 111.103L58.5745 109.64C58.3876 109.398 58.4314 109.049 58.6725 108.863C58.8244 108.748 59.0174 108.72 59.187 108.776C59.2883 108.81 59.3809 108.874 59.4507 108.965L60.5786 110.426C60.7656 110.667 60.7189 111.017 60.4778 111.202C60.3267 111.32 60.134 111.346 59.9657 111.29Z" fill="#4E9B3D"/>
<path d="M50.9366 97.9364C50.8353 97.903 50.7425 97.8399 50.6726 97.7494L49.5446 96.2889C49.3589 96.0477 49.4032 95.6969 49.6446 95.5102C49.7952 95.3943 49.9892 95.3683 50.1575 95.424C50.2588 95.4574 50.3517 95.5206 50.4215 95.611L51.5504 97.0734C51.7361 97.3147 51.691 97.6635 51.4495 97.8503C51.2989 97.9661 51.1063 97.9925 50.9366 97.9364Z" fill="#CCCCCC"/>
<path d="M54.2884 87.7866C54.1871 87.7532 54.0955 87.6904 54.0257 87.6L52.8982 86.1375C52.7124 85.8968 52.7567 85.546 52.9973 85.3617C53.1484 85.2444 53.3424 85.2184 53.512 85.2745C53.6133 85.3079 53.7062 85.3711 53.7747 85.4611L54.9034 86.924C55.0893 87.1647 55.0437 87.5151 54.8026 87.7009C54.652 87.8167 54.458 87.8427 54.2884 87.7866Z" fill="#CCCCCC"/>
<path d="M86.9812 127.106L85.6798 126.676C93.7447 122.437 100.239 115.187 103.323 105.853C105.887 98.0952 105.7 90.0909 103.296 82.8964C104.971 82.2421 106.624 81.499 108.253 80.6698C111.18 89.0651 111.466 98.4545 108.461 107.55C108.384 107.782 108.306 108.011 108.226 108.241L99.0859 123.238C97.8653 124.522 96.5665 125.724 95.202 126.837C92.82 127.867 89.7678 128.026 86.9812 127.106Z" fill="#E5BE6E"/>
<path d="M34.1832 109.653C31.5715 108.683 29.3783 106.817 28.1415 104.678C27.7081 102.972 27.3823 101.234 27.1659 99.4751L28.7601 81.9854C28.833 81.7522 28.9074 81.5228 28.984 81.2908C31.9891 72.1958 37.8131 64.8243 45.1659 59.8256C45.979 61.4617 46.8644 63.0449 47.8204 64.567C41.6018 68.9125 36.6835 75.2301 34.1202 82.9879C31.6475 90.4718 31.734 98.1869 33.9023 105.182C33.7317 106.667 33.8374 108.183 34.1832 109.653Z" fill="#E5BE6E"/>
<path d="M35.8849 110.223L34.586 109.794C34.4505 109.75 34.3158 109.702 34.1833 109.653C33.8376 108.183 33.7319 106.667 33.9025 105.182C34.4388 106.912 35.1014 108.595 35.8849 110.223Z" fill="#8C0009"/>
<path d="M91.3835 158.415L12.3967 132.317L91.3822 158.414C98.1377 160.646 105.425 156.979 107.658 150.222C105.425 156.979 98.1377 160.646 91.3835 158.415Z" fill="#E5E5E5"/>
<path d="M133.094 64.2992C131.786 60.7609 128.944 57.8279 125.09 56.5407C125.089 56.5402 125.088 56.5398 125.088 56.5398C125.079 56.5369 125.071 56.5344 125.064 56.5319C125.059 56.5302 125.054 56.5285 125.048 56.5269C128.922 57.8069 131.78 60.7479 133.094 64.2992Z" fill="#243C47"/>
<path d="M91.3822 158.414L12.3967 132.317C5.63995 130.084 1.97285 122.797 4.2054 116.041L29.786 38.6201C32.0185 31.8633 39.3049 28.1961 46.0616 30.4286C39.3049 28.1961 33.2482 32.7527 32.5733 40.1588L31.3811 53.2317L11.4284 113.619C9.446 119.619 12.703 126.09 18.7026 128.072L88.845 151.248C94.8459 153.231 101.317 149.974 103.299 143.974L123.252 83.5869L130.083 72.3771C133.945 66.0408 131.812 58.7884 125.09 56.5406C128.943 57.8278 131.785 60.7609 133.093 64.2992C133.89 66.4567 134.118 68.8405 133.655 71.2109C133.551 71.7424 133.413 72.274 133.239 72.802L107.658 150.222C105.425 156.979 98.1377 160.646 91.3822 158.414Z" fill="#5B9AB5"/>
<path d="M88.845 151.248L18.7027 128.072C12.703 126.09 9.44601 119.619 11.4284 113.619L31.3811 53.2314L28.76 81.9848C26.9433 87.8187 26.4678 93.7628 27.1658 99.4744L27.0811 100.411C26.9517 101.835 27.351 103.313 28.1413 104.678C31.5408 118.074 41.4971 129.501 55.5916 134.158C69.6875 138.816 84.4919 135.57 95.2018 126.837C96.6502 126.21 97.8524 125.262 98.5959 124.04L99.0857 123.238C103.049 119.066 106.21 114.009 108.225 108.241L123.252 83.5866L103.299 143.974C101.317 149.974 94.8459 153.231 88.845 151.248Z" fill="#96C1D3"/>
<path d="M57.2883 129.023C51.1836 127.006 45.971 123.53 41.9088 119.109C42.1425 119.205 42.38 119.294 42.6206 119.373C42.7687 119.422 42.9182 119.467 43.0684 119.51C44.0878 119.799 45.1503 119.966 46.1518 120.297C46.4847 120.407 46.8118 120.535 47.1263 120.692C49.1795 121.711 50.4696 123.769 52.0783 125.403C53.5956 126.944 55.3991 128.102 57.3415 129.041C57.3238 129.035 57.3061 129.029 57.2883 129.023ZM79.5678 129.215C80.6416 128.047 81.662 126.795 82.8183 125.73L85.6795 126.676C83.7254 127.702 81.6793 128.553 79.5678 129.215Z" fill="#E5BE6E"/>
<path d="M57.3419 129.041C55.3994 128.103 53.5959 126.944 52.0787 125.403C50.47 123.77 49.1798 121.712 47.1267 120.692C46.8121 120.535 46.4851 120.407 46.1521 120.297C45.1507 119.966 44.0882 119.799 43.0687 119.51C42.9185 119.467 42.769 119.422 42.6209 119.373C42.3804 119.294 42.1428 119.206 41.9091 119.11C39.4663 116.452 37.4386 113.451 35.8849 110.223L61.7066 118.755C61.5525 119.017 61.639 119.359 61.9025 119.513C61.9362 119.535 61.9718 119.55 62.0085 119.562C62.2503 119.642 62.5267 119.545 62.6609 119.318L62.7827 119.11L78.223 124.212L76.9942 124.65C76.7065 124.752 76.5561 125.071 76.6575 125.359C76.7178 125.525 76.8505 125.646 77.0075 125.698C77.1202 125.735 77.2459 125.737 77.3655 125.694L79.1048 125.075C79.3069 125.003 79.4406 124.824 79.4688 124.624L82.8187 125.731C81.6623 126.795 80.6419 128.047 79.5681 129.215C72.5667 131.403 64.8392 131.505 57.3419 129.041ZM55.4626 119.743C55.1967 119.655 54.9023 119.781 54.7845 120.04L54.0219 121.724C53.8978 122.001 54.0219 122.331 54.2993 122.456C54.3173 122.466 54.335 122.472 54.3528 122.477C54.6174 122.565 54.9157 122.44 55.0326 122.179L55.7935 120.497C55.9193 120.218 55.7944 119.891 55.5175 119.764C55.4993 119.755 55.4803 119.749 55.4626 119.743ZM65.3938 123.584C65.2242 123.528 65.0315 123.554 64.8809 123.67C64.6394 123.857 64.5944 124.205 64.7801 124.447L65.9088 125.91C65.9787 125.999 66.0704 126.062 66.1729 126.096C66.3413 126.152 66.535 126.126 66.6862 126.009C66.9273 125.823 66.9716 125.472 66.7857 125.232L65.6578 123.771C65.588 123.68 65.4951 123.617 65.3938 123.584ZM46.471 114.427C46.2292 114.347 45.9541 114.445 45.819 114.671L44.8804 116.262C44.7264 116.524 44.8141 116.867 45.076 117.022C45.1101 117.042 45.1457 117.057 45.1824 117.07C45.4255 117.15 45.7 117.054 45.8345 116.826L46.7743 115.235C46.9296 114.973 46.8401 114.632 46.5783 114.477C46.5444 114.456 46.5078 114.439 46.471 114.427Z" fill="#8C0009"/>
<path d="M77.0073 125.697C76.8503 125.646 76.7176 125.525 76.6573 125.359C76.5559 125.071 76.7064 124.751 76.994 124.65L78.2228 124.212L79.4686 124.623C79.4404 124.823 79.3068 125.003 79.1046 125.075L77.3653 125.693C77.2457 125.737 77.12 125.735 77.0073 125.697Z" fill="#E5E5E5"/>
<path d="M45.1823 117.07C45.1456 117.058 45.11 117.042 45.0759 117.022C44.814 116.867 44.7263 116.525 44.8803 116.262L45.8189 114.671C45.9541 114.445 46.2291 114.348 46.471 114.428C46.5077 114.44 46.5443 114.456 46.5782 114.477C46.84 114.632 46.9295 114.974 46.7742 115.235L45.8344 116.826C45.7 117.054 45.4254 117.15 45.1823 117.07Z" fill="#E5E5E5"/>
<path d="M62.0085 119.562C61.9718 119.55 61.9362 119.534 61.9025 119.513C61.639 119.359 61.5525 119.017 61.7066 118.755L62.7827 119.11L62.6609 119.317C62.5267 119.545 62.2503 119.642 62.0085 119.562Z" fill="#E5E5E5"/>
<path d="M66.1729 126.096C66.0703 126.062 65.9787 125.999 65.9087 125.909L64.78 124.446C64.5943 124.205 64.6394 123.856 64.8809 123.669C65.0315 123.554 65.2241 123.527 65.3938 123.583C65.4951 123.617 65.588 123.68 65.6577 123.77L66.7857 125.231C66.9715 125.472 66.9273 125.823 66.6861 126.009C66.535 126.126 66.3412 126.151 66.1729 126.096Z" fill="#BA3B43"/>
<path d="M54.3523 122.477C54.3346 122.472 54.3169 122.466 54.2989 122.456C54.0214 122.331 53.8974 122.001 54.0215 121.724L54.7841 120.04C54.9019 119.781 55.1963 119.655 55.4621 119.743C55.4799 119.749 55.4988 119.755 55.517 119.764C55.794 119.891 55.9188 120.218 55.793 120.497L55.0322 122.179C54.9153 122.44 54.6169 122.565 54.3523 122.477Z" fill="#58AE44"/>
<path d="M55.5916 134.158C41.497 129.501 31.5407 118.074 28.1413 104.677C29.3781 106.816 31.5713 108.682 34.1829 109.652C35.1496 113.773 38.0001 117.513 41.9087 119.109C45.9709 123.53 51.1836 127.006 57.2883 129.023C57.306 129.029 57.3238 129.034 57.3415 129.04C58.8799 129.782 60.5072 130.386 62.1492 130.928C63.0962 131.241 64.0486 131.533 64.9927 131.821C68.3718 132.852 72.09 133.873 75.3466 132.5C77.0168 131.796 78.3279 130.561 79.5677 129.214C81.6792 128.553 83.7254 127.702 85.6795 126.675L86.9809 127.105C89.7674 128.026 92.8197 127.866 95.2017 126.837C84.4918 135.57 69.6874 138.815 55.5916 134.158Z" fill="#CEAB63"/>
<path d="M62.1494 130.929C60.5074 130.386 58.88 129.782 57.3416 129.041C64.839 131.506 72.5665 131.403 79.5679 129.215C78.3281 130.562 77.017 131.797 75.3467 132.5C72.0901 133.874 68.372 132.853 64.9928 131.822C64.0488 131.534 63.0964 131.242 62.1494 130.929ZM41.9089 119.11C38.0002 117.514 35.1498 113.774 34.1831 109.653C34.3156 109.702 34.4503 109.749 34.5857 109.794L35.8847 110.223C37.4384 113.451 39.466 116.452 41.9089 119.11Z" fill="#7E0008"/>
<path d="M27.1659 99.4751C26.4679 93.7635 26.9434 87.8193 28.7601 81.9854L27.1659 99.4751Z" fill="#CEAB63"/>
<path d="M99.0855 123.238L108.225 108.242C106.21 114.01 103.049 119.067 99.0855 123.238Z" fill="#CEAB63"/>
<path d="M72.1313 84.0961C69.936 83.3708 67.831 82.4827 65.8235 81.4442C68.0926 80.9346 70.5235 81.0148 72.8922 81.7974C75.2609 82.5801 77.2624 83.9644 78.7812 85.7256C76.5488 85.3632 74.3291 84.8223 72.1313 84.0961Z" fill="#C2E3F1"/>
<path d="M49.1776 66.6222C48.7104 65.9494 48.2582 65.2652 47.8205 64.567C56.9191 58.2073 68.802 56.0685 80.1544 59.8195C88.7697 62.666 95.6095 68.4168 99.9447 75.6279C98.9731 74.9092 97.8732 74.3281 96.7762 73.8954C96.1862 73.6625 95.584 73.4537 94.9788 73.2538C94.5952 73.127 94.2103 73.0042 93.8254 72.8814C93.4419 72.7586 93.0582 72.6362 92.6759 72.5099C90.8288 71.8996 89.0299 71.207 87.4942 70.0326C84.4489 67.7022 82.8169 63.7336 79.4473 61.9043C79.0201 61.6716 78.582 61.4846 78.1351 61.3369C74.8282 60.2443 71.0197 61.3118 67.2198 62.383C63.4191 63.4525 59.6259 64.5243 56.3507 63.4422C55.8241 63.2682 55.3116 63.0386 54.8132 62.745C54.7652 62.7246 54.7166 62.7059 54.6684 62.69C52.9365 62.1178 50.5534 64.0433 49.6549 65.6493C49.4778 65.9643 49.3223 66.2904 49.1776 66.6222ZM102.923 83.0402C102.987 82.7904 103.042 82.5402 103.086 82.2881C103.158 82.4903 103.228 82.6935 103.296 82.8968C103.172 82.9458 103.047 82.9928 102.923 83.0402Z" fill="#FFE1A2"/>
<path d="M58.8172 76.9247C55.1405 74.0276 51.9109 70.5509 49.1775 66.622C49.3222 66.2903 49.4777 65.9642 49.6548 65.6492C50.5533 64.0432 52.9364 62.1176 54.6683 62.6899C54.7164 62.7058 54.765 62.7245 54.8131 62.7448C55.3115 63.0384 55.824 63.268 56.3506 63.442C59.6258 64.5242 63.4189 63.4523 67.2197 62.3829C71.0196 61.3116 74.8281 60.2442 78.135 61.3368C78.5819 61.4844 79.02 61.6715 79.4472 61.9042C82.8168 63.7334 84.4487 67.702 87.494 70.0324C89.0298 71.2069 90.8287 71.8994 92.6758 72.5097C93.0581 72.636 93.4418 72.7584 93.8253 72.8812C94.2102 73.0041 94.5951 73.1269 94.9787 73.2536C95.5838 73.4536 96.186 73.6624 96.7761 73.8953C97.8731 74.3279 98.973 74.909 99.9446 75.6277C101.212 77.7342 102.266 79.9667 103.086 82.2879C103.042 82.5401 102.987 82.7902 102.923 83.04C101.293 83.6617 99.6459 84.1986 97.9858 84.6457L98.9842 84.2887C99.2719 84.1873 99.422 83.8689 99.3204 83.5814C99.2606 83.4141 99.1279 83.2929 98.9709 83.241C98.8582 83.2038 98.7322 83.2027 98.6113 83.2456L96.8732 83.8649C96.5864 83.9682 96.435 84.2862 96.5378 84.5742C96.5964 84.7411 96.7291 84.8623 96.886 84.9142C96.8949 84.9171 96.9043 84.9185 96.9119 84.921C93.6765 85.7159 90.3911 86.1734 87.1001 86.2697C86.1439 84.1146 84.8106 82.1277 83.1549 80.4194C83.1225 80.2754 83.0332 80.1461 82.8968 80.0659C82.8613 80.046 82.8259 80.0298 82.7892 80.0177C82.7727 80.0123 82.7562 80.0068 82.7407 80.0028C80.6253 77.9436 78.0203 76.3204 75.0287 75.3319C73.0576 74.6806 71.0573 74.351 69.0853 74.3143C69.051 74.2778 69.0101 74.2445 68.9644 74.2168C68.9302 74.1972 68.8935 74.1807 68.8568 74.1686C68.6517 74.1008 68.4246 74.1591 68.2774 74.3156C64.9247 74.3904 61.6772 75.3069 58.8172 76.9247ZM90.6196 81.3593C90.3778 81.2794 90.1043 81.3761 89.9688 81.6034L89.0319 83.1939C88.8762 83.4568 88.963 83.7976 89.2265 83.9521C89.2604 83.9727 89.2971 83.9891 89.3338 84.0013C89.5756 84.0812 89.8502 83.9854 89.9846 83.7573L90.9228 82.1671C91.0785 81.9042 90.9903 81.5635 90.7285 81.4079C90.693 81.3879 90.6563 81.3714 90.6196 81.3593ZM56.0491 70.3428C55.8807 70.2871 55.6868 70.3129 55.5362 70.4289C55.2947 70.6157 55.2505 70.9663 55.4349 71.2072L56.5641 72.6685C56.634 72.7586 56.727 72.8216 56.8282 72.8551C56.9979 72.9112 57.1903 72.8854 57.3411 72.769C57.5826 72.5823 57.6281 72.2319 57.4423 71.9912L56.3131 70.5298C56.2433 70.4392 56.1504 70.3762 56.0491 70.3428ZM63.4705 67.0617C63.3566 67.024 63.2318 67.0234 63.1122 67.0667L61.3725 67.6865C61.0847 67.7884 60.9342 68.1079 61.0362 68.3943C61.0948 68.5612 61.2276 68.682 61.3858 68.7342C61.4985 68.7715 61.6246 68.7725 61.7455 68.7296L63.4822 68.1099C63.7704 68.0071 63.9216 67.6896 63.8202 67.4015C63.7603 67.2343 63.6275 67.1136 63.4705 67.0617ZM91.825 75.2504C91.7123 75.2131 91.5866 75.2112 91.467 75.2544L89.7274 75.8743C89.4405 75.9775 89.2891 76.2957 89.3923 76.5825C89.4508 76.7495 89.5835 76.8707 89.7405 76.9225C89.8532 76.9598 89.9789 76.9619 90.0998 76.9189L91.8383 76.2981C92.1265 76.1953 92.2764 75.8774 92.1745 75.5908C92.116 75.4239 91.9833 75.3027 91.825 75.2504ZM81.9086 71.4714C81.7389 71.4154 81.5465 71.4412 81.3957 71.5577C81.1542 71.7444 81.1092 72.0932 81.2948 72.3345L82.4237 73.7968C82.4935 73.8873 82.5851 73.95 82.6877 73.9839C82.8561 74.0395 83.05 74.0136 83.2011 73.8963C83.4421 73.7109 83.4876 73.3607 83.3007 73.1189L82.1727 71.658C82.1029 71.5675 82.0099 71.5049 81.9086 71.4714ZM71.6201 66.9443C71.4517 66.8886 71.2578 66.9146 71.1072 67.0304C70.8657 67.2172 70.8207 67.5661 71.0059 67.8088L72.1351 69.2702C72.2051 69.3602 72.2979 69.4233 72.3992 69.4567C72.5689 69.5128 72.7615 69.4864 72.9122 69.3705C73.1536 69.1838 73.1979 68.833 73.0133 68.5927L71.8841 67.1313C71.8143 67.0407 71.7214 66.9777 71.6201 66.9443Z" fill="#BA4D54"/>
<path d="M61.3858 68.7336C61.2275 68.6813 61.0947 68.5606 61.0361 68.3937C60.9341 68.1072 61.0846 67.7878 61.3724 67.6859L63.1121 67.0661C63.2317 67.0228 63.3565 67.0234 63.4704 67.0611C63.6274 67.1129 63.7602 67.2336 63.8201 67.4009C63.9215 67.689 63.7703 68.0065 63.4821 68.1093L61.7454 68.729C61.6245 68.7719 61.4984 68.7709 61.3858 68.7336Z" fill="#DD7B81"/>
<path d="M96.8861 84.9141C96.7291 84.8622 96.5964 84.741 96.5378 84.5741C96.435 84.2861 96.5864 83.968 96.8733 83.8648L98.6113 83.2455C98.7322 83.2026 98.8583 83.2036 98.9709 83.2409C99.1279 83.2927 99.2606 83.414 99.3204 83.5813C99.4221 83.8688 99.2719 84.1872 98.9842 84.2886L97.9859 84.6455C97.6281 84.7423 97.2709 84.8332 96.9119 84.9209C96.9043 84.9184 96.895 84.917 96.8861 84.9141Z" fill="#DD7B81"/>
<path d="M89.7406 76.9219C89.5836 76.87 89.4509 76.7488 89.3923 76.5819C89.2891 76.295 89.4406 75.9769 89.7274 75.8736L91.4671 75.2537C91.5867 75.2105 91.7124 75.2125 91.8251 75.2497C91.9833 75.302 92.116 75.4232 92.1746 75.5901C92.2765 75.8767 92.1265 76.1946 91.8384 76.2974L90.0998 76.9183C89.9789 76.9612 89.8532 76.9591 89.7406 76.9219Z" fill="#91D482"/>
<path d="M56.8283 72.8544C56.727 72.821 56.6341 72.758 56.5641 72.6679L55.435 71.2065C55.2505 70.9657 55.2948 70.6151 55.5363 70.4282C55.6869 70.3123 55.8808 70.2865 56.0492 70.3421C56.1504 70.3756 56.2434 70.4386 56.3131 70.5292L57.4423 71.9905C57.6282 72.2313 57.5826 72.5816 57.3412 72.7683C57.1904 72.8848 56.9979 72.9105 56.8283 72.8544Z" fill="#91D482"/>
<path d="M72.3995 69.4561C72.2982 69.4227 72.2053 69.3595 72.1353 69.2696L71.0061 67.8082C70.8209 67.5654 70.8659 67.2166 71.1074 67.0297C71.258 66.9139 71.452 66.888 71.6203 66.9436C71.7216 66.9771 71.8145 67.0401 71.8843 67.1307L73.0135 68.5921C73.1981 68.8324 73.1538 69.1831 72.9124 69.3699C72.7618 69.4858 72.5691 69.5122 72.3995 69.4561Z" fill="#91D482"/>
<path d="M68.2774 74.3154C68.4246 74.1589 68.6517 74.1007 68.8568 74.1684C68.8935 74.1806 68.9302 74.197 68.9645 74.2167C69.0101 74.2444 69.051 74.2777 69.0853 74.3141C68.8158 74.3096 68.5459 74.3103 68.2774 74.3154Z" fill="#91D482"/>
<path d="M89.3336 84.0006C89.2969 83.9885 89.2603 83.972 89.2263 83.9514C88.9628 83.7969 88.8761 83.4561 89.0317 83.1932L89.9687 81.6028C90.1042 81.3754 90.3776 81.2787 90.6195 81.3586C90.6562 81.3707 90.6928 81.3872 90.7284 81.4072C90.9901 81.5628 91.0783 81.9035 90.9227 82.1664L89.9844 83.7566C89.85 83.9847 89.5755 84.0805 89.3336 84.0006Z" fill="white"/>
<path d="M83.1549 80.4193C83.0192 80.2774 82.8805 80.1405 82.7406 80.0027C82.7562 80.0067 82.7726 80.0121 82.7891 80.0176C82.8258 80.0297 82.8612 80.0459 82.8967 80.0658C83.0331 80.146 83.1224 80.2753 83.1549 80.4193Z" fill="white"/>
<path d="M82.6875 73.9835C82.585 73.9496 82.4933 73.8869 82.4235 73.7964L81.2947 72.334C81.109 72.0928 81.154 71.744 81.3955 71.5572C81.5463 71.4408 81.7388 71.4149 81.9084 71.471C82.0097 71.5044 82.1028 71.5671 82.1726 71.6575L83.3005 73.1185C83.4874 73.3603 83.4419 73.7105 83.2009 73.8958C83.0498 74.0131 82.8559 74.0391 82.6875 73.9835Z" fill="white"/>
<path d="M45.166 59.8254C43.3611 56.193 41.9161 52.296 40.855 48.206C39.9038 44.5441 42.8864 40.6556 46.3843 41.1528C46.9702 41.2368 47.557 41.3732 48.1381 41.5652L116.744 64.2332C117.196 64.3825 117.631 64.5601 118.049 64.7669C121.365 66.4017 121.709 71.4286 118.621 73.9179C115.338 76.5653 111.859 78.8298 108.253 80.67C104.115 68.8063 94.7045 58.9284 81.8519 54.6817C68.9993 50.4351 55.5564 52.7602 45.166 59.8254Z" fill="#C2E3F1"/>
<path d="M65.8239 81.4441C64.0815 80.5426 62.4132 79.5312 60.8207 78.4137L61.5099 78.1681C61.7981 78.0653 61.9481 77.7472 61.8466 77.4593C61.7868 77.2919 61.6539 77.1712 61.497 77.1193C61.3843 77.0821 61.2583 77.081 61.1386 77.1244L59.7317 77.6255C59.4242 77.3961 59.119 77.1635 58.8174 76.9246C61.6774 75.3068 64.9249 74.3903 68.2776 74.3155C68.2499 74.3442 68.2262 74.3775 68.2049 74.4122L67.2667 76.0023C67.1111 76.2651 67.2004 76.6068 67.4614 76.7604C67.4966 76.7815 67.5332 76.7979 67.5699 76.8101C67.8117 76.89 68.0863 76.7942 68.2207 76.566L69.1602 74.9763C69.2881 74.7592 69.2495 74.4891 69.0855 74.3142C71.0575 74.3509 73.0578 74.6805 75.0289 75.3318C78.0205 76.3203 80.6255 77.9435 82.7409 80.0027C82.5114 79.9493 82.2641 80.0477 82.1386 80.2618L81.1991 81.8514C81.0447 82.1146 81.1333 82.4544 81.3951 82.6096C81.4302 82.631 81.4656 82.647 81.5023 82.6592C81.7441 82.7391 82.0192 82.6418 82.1543 82.4156L83.0916 80.8241C83.1673 80.6971 83.1855 80.5527 83.1551 80.4193C84.8108 82.1276 86.1441 84.1145 87.1003 86.2696C84.3256 86.3501 81.5445 86.1738 78.7816 85.7255C77.2628 83.9643 75.2614 82.58 72.8927 81.7974C70.5239 81.0147 68.093 80.9345 65.8239 81.4441ZM76.9785 77.2047C76.8658 77.1674 76.7398 77.1664 76.6194 77.2077L74.8808 77.8286C74.5927 77.9314 74.4426 78.2498 74.5441 78.5374C74.604 78.7046 74.7367 78.8259 74.8937 78.8777C75.0063 78.915 75.1326 78.9155 75.2522 78.8722L76.9918 78.2524C77.2784 78.1501 77.4301 77.831 77.3269 77.5442C77.2683 77.3772 77.1355 77.2565 76.9785 77.2047Z" fill="#A44D53"/>
<path d="M74.8936 78.8772C74.7366 78.8253 74.6039 78.7041 74.544 78.5369C74.4424 78.2493 74.5926 77.9308 74.8807 77.828L76.6193 77.2072C76.7397 77.1658 76.8657 77.1669 76.9784 77.2041C77.1354 77.256 77.2682 77.3767 77.3268 77.5436C77.43 77.8305 77.2782 78.1495 76.9917 78.2518L75.2521 78.8716C75.1324 78.915 75.0062 78.9144 74.8936 78.8772Z" fill="#C17277"/>
<path d="M60.8207 78.4137C60.4533 78.1573 60.0896 77.8939 59.7317 77.6255L61.1386 77.1243C61.2582 77.081 61.3843 77.0821 61.497 77.1193C61.6539 77.1712 61.7868 77.2919 61.8466 77.4592C61.9481 77.7472 61.7981 78.0653 61.5099 78.1681L60.8207 78.4137Z" fill="#DBDBDB"/>
<path d="M67.5697 76.8096C67.533 76.7975 67.4963 76.781 67.4611 76.7599C67.2001 76.6063 67.1108 76.2646 67.2665 76.0018L68.2047 74.4117C68.226 74.3771 68.2496 74.3437 68.2774 74.315C68.5459 74.3099 68.8157 74.3092 69.0852 74.3137C69.2493 74.4887 69.2879 74.7587 69.16 74.9758L68.2204 76.5656C68.0861 76.7937 67.8115 76.8895 67.5697 76.8096Z" fill="#83B978"/>
<path d="M81.5019 82.6591C81.4652 82.6469 81.4298 82.6309 81.3948 82.6095C81.1329 82.4543 81.0443 82.1145 81.1987 81.8513L82.1382 80.2617C82.2637 80.0476 82.511 79.9492 82.7405 80.0026C82.8804 80.1404 83.0191 80.2773 83.1548 80.4192C83.1851 80.5526 83.1669 80.697 83.0912 80.824L82.1539 82.4155C82.0188 82.6417 81.7437 82.739 81.5019 82.6591Z" fill="#DBDBDB"/>
<path d="M47.8204 64.567C46.8643 63.0449 45.979 61.4617 45.1659 59.8256C55.5564 52.7605 68.9992 50.4353 81.8518 54.6819C94.7044 58.9286 104.115 68.8065 108.253 80.6702C106.624 81.4994 104.971 82.2425 103.296 82.8968C103.228 82.6934 103.158 82.4902 103.086 82.288C103.163 81.8457 103.204 81.4001 103.187 80.9481C103.109 78.7613 101.749 76.9595 99.9446 75.6278C95.6094 68.4167 88.7695 62.666 80.1543 59.8194C68.8019 56.0685 56.919 58.2072 47.8204 64.567Z" fill="#EDD29A"/>
<path d="M103.086 82.2875C102.266 79.9663 101.212 77.7338 99.9445 75.6273C101.748 76.959 103.109 78.7607 103.187 80.9476C103.203 81.3995 103.163 81.8452 103.086 82.2875Z" fill="#AF4D53"/>
</g>
<defs>
<filter id="filter0_d_66_514" x="3.55136" y="0" width="177.397" height="187.568" filterUnits="userSpaceOnUse" color-interpolation-filters="sRGB">
<feFlood flood-opacity="0" result="BackgroundImageFix"/>
<feColorMatrix in="SourceAlpha" type="matrix" values="0 0 0 0 0 0 0 0 0 0 0 0 0 0 0 0 0 0 127 0" result="hardAlpha"/>
<feOffset dx="20" dy="12"/>
<feGaussianBlur stdDeviation="8.25"/>
<feComposite in2="hardAlpha" operator="out"/>
<feColorMatrix type="matrix" values="0 0 0 0 0 0 0 0 0 0 0 0 0 0 0 0 0 0 0.25 0"/>
<feBlend mode="normal" in2="BackgroundImageFix" result="effect1_dropShadow_66_514"/>
<feBlend mode="normal" in="SourceGraphic" in2="effect1_dropShadow_66_514" result="shape"/>
</filter>
</defs>
</svg>
