<svg width="163" height="182" viewBox="0 0 163 182" fill="none" xmlns="http://www.w3.org/2000/svg">
<g opacity="0.8" filter="url(#filter0_d_66_705)">
<path d="M58.7442 13.3496L125.535 48.4063L121.793 37.6843L69.7479 10.3356L58.7442 13.3496Z" fill="#A1A5AD"/>
<path d="M75.3375 5.99655L122.196 30.62C123.628 31.3724 124.122 33.2527 123.3 34.8178L121.793 37.6847L69.7481 10.3359L71.2546 7.46899C72.077 5.90392 73.9058 5.24422 75.3375 5.99655Z" fill="#C8CCD6"/>
<path d="M71.9283 150.421L5.16658 115.308L7.77883 123.998C8.44463 125.466 9.69038 126.744 11.2531 127.565L58.4284 152.355C59.9899 153.175 61.7504 153.477 63.3366 153.193L71.9283 150.421Z" fill="#A1A5AD"/>
<path d="M67.8378 150.186L7.70286 118.586C5.06607 117.2 4.05295 113.94 5.43791 111.305L55.5929 15.8586C56.9779 13.223 60.2375 12.2081 62.8743 13.5937L123.009 45.1935C125.645 46.5785 126.659 49.8392 125.274 52.4748L75.1191 147.921C73.7341 150.556 70.4734 151.571 67.8378 150.186Z" fill="#DF000E"/>
<path d="M116.309 69.5358C104.96 68.0967 84.887 68.362 65.0623 82.4069C65.3831 58.1432 54.2429 41.4731 46.6208 32.9327L23.8003 76.3605C32.9981 79.4631 46.2533 87.6742 50.8753 109.405C71.4213 100.872 85.7119 107.162 93.4783 112.983L116.309 69.5358Z" fill="#9C000A"/>
<path d="M44.1334 122.235C39.5114 100.504 26.2556 92.2943 17.0584 89.1905L5.43791 111.305C4.05295 113.94 5.06607 117.2 7.70286 118.586L67.8378 150.186C70.4734 151.571 73.7341 150.556 75.1191 147.921L86.7359 125.814C78.9701 119.992 64.6795 113.702 44.1334 122.235Z" fill="#9C000A"/>
<path d="M7.70286 118.586L34.5274 132.682C29.0397 114.843 17.2308 107.72 8.8144 104.879L5.43791 111.305C4.05295 113.94 5.06607 117.2 7.70286 118.586Z" fill="#7A0007"/>
<path d="M40.9776 136.071L67.8376 150.185C70.4732 151.57 73.7339 150.556 75.1189 147.92L78.4917 141.502C71.3851 136.174 58.8088 130.463 40.9776 136.071Z" fill="#7A0007"/>
<path d="M96.4626 79.6263C89.6538 92.5836 73.6298 97.5671 60.6737 90.7589C47.7164 83.95 42.7323 67.9272 49.5411 54.9699C56.3493 42.0138 72.3722 37.0297 85.3295 43.8385C98.2856 50.6467 103.271 66.6702 96.4626 79.6263Z" fill="white"/>
<path d="M79.8686 61.6973C76.8816 67.3816 69.8529 69.5699 64.1674 66.5823C58.4831 63.5953 56.296 56.5643 59.283 50.88C62.27 45.1957 69.3011 43.0086 74.9854 45.9956C80.6709 48.9832 82.8556 56.013 79.8686 61.6973Z" fill="#9C000A"/>
<path d="M83.1381 82.9629C81.3115 86.4389 77.0125 87.7752 73.5377 85.9493C70.0618 84.1227 68.7237 79.8242 70.5502 76.3483C72.3768 72.8723 76.6765 71.5348 80.1524 73.3614C83.6272 75.1873 84.9647 79.487 83.1381 82.9629Z" fill="#9C000A"/>
<path d="M86.7361 125.814C85.2162 124.673 83.445 123.515 81.4255 122.454C79.7825 121.59 77.9748 120.791 76.003 120.118L84.6663 108.003C85.9069 108.502 87.0732 109.049 88.1685 109.625C90.188 110.686 91.9568 111.843 93.4785 112.983L86.7361 125.814ZM112.445 69.1521L123.715 53.3893C125.75 50.5455 125.67 47.2064 123.621 45.5977C125.747 47.1144 126.519 49.9688 125.333 52.3609L125.332 52.3621C125.33 52.3656 125.328 52.3704 125.326 52.3739C125.325 52.3751 125.325 52.3762 125.324 52.3774C125.323 52.3798 125.321 52.3833 125.319 52.3869C125.318 52.3892 125.317 52.3904 125.317 52.3916C125.316 52.3958 125.314 52.3993 125.312 52.4028C125.312 52.404 125.311 52.4052 125.31 52.4075C125.308 52.4111 125.307 52.4134 125.305 52.4158C125.304 52.4182 125.303 52.4205 125.302 52.4229C125.3 52.4264 125.298 52.4288 125.297 52.4312C125.296 52.4335 125.295 52.4359 125.294 52.4382C125.292 52.4406 125.291 52.4429 125.29 52.4453C125.288 52.4488 125.287 52.4512 125.285 52.4536C125.284 52.456 125.283 52.4583 125.282 52.4595C125.279 52.4654 125.277 52.4701 125.274 52.4748L116.309 69.536C115.114 69.3843 113.822 69.2521 112.445 69.1521Z" fill="#C8000D"/>
<path d="M93.4781 112.983C91.9564 111.843 90.1876 110.686 88.1681 109.624C87.0728 109.049 85.9065 108.502 84.6659 108.003L112.445 69.152C113.822 69.2519 115.114 69.3842 116.309 69.5359L93.4781 112.983Z" fill="#8C0009"/>
<path d="M44.1334 122.235C43.7504 120.435 43.3084 118.728 42.815 117.111L49.1001 120.413C47.4878 120.925 45.8313 121.529 44.1334 122.235Z" fill="#C8000D"/>
<path d="M17.0581 89.1904L23.8 76.3606C25.5901 76.9639 27.5356 77.7618 29.5398 78.815C30.6445 79.3955 31.7691 80.0557 32.895 80.8025L27.8309 94.8107C26.1469 93.5582 24.4521 92.5155 22.7973 91.646C20.792 90.5922 18.8489 89.7955 17.0581 89.1904ZM49.1287 35.9016C48.2654 34.8214 47.4236 33.8323 46.6205 32.9328L55.5927 15.8586C55.5951 15.8539 55.5976 15.8492 55.6007 15.8433C55.6013 15.8421 55.6026 15.8398 55.6038 15.8374C55.605 15.835 55.6063 15.8326 55.6082 15.8291C55.6094 15.8267 55.6106 15.8244 55.6113 15.8232C55.6131 15.8197 55.6143 15.8173 55.6156 15.815C55.6168 15.8126 55.6187 15.809 55.6199 15.8067C55.6212 15.8043 55.6224 15.8019 55.6237 15.7996C55.6249 15.7972 55.6262 15.7949 55.6274 15.7925C55.6286 15.7901 55.6298 15.7878 55.6311 15.7855C55.6335 15.7837 55.6354 15.7802 55.6372 15.7766C55.6379 15.7754 55.6385 15.7742 55.6391 15.7731C55.6416 15.7683 55.6428 15.766 55.6453 15.7612C55.6453 15.7612 55.6459 15.7601 55.6465 15.7589C56.9397 13.4155 59.7336 12.427 62.1954 13.32C59.7067 12.5439 56.9127 14.3728 55.7239 17.6612L49.1287 35.9016Z" fill="#C8000D"/>
<path d="M23.8003 76.3604L46.6208 32.9325C47.4239 33.832 48.2658 34.8211 49.1291 35.9014L32.8954 80.8022C31.7695 80.0555 30.6449 79.3952 29.5401 78.8147C27.536 77.7616 25.5905 76.9637 23.8003 76.3604Z" fill="#8C0009"/>
<path d="M40.9778 136.071L34.5274 132.682C30.2055 118.632 21.9617 111.229 14.5435 107.331C12.5429 106.279 10.6016 105.482 8.8144 104.879L17.0584 89.1905C18.8492 89.7956 20.7923 90.5922 22.7976 91.646C24.4524 92.5155 26.1472 93.5583 27.8312 94.8107L24.4834 104.071C23.9074 105.663 24.8297 107.66 26.534 108.556L42.815 117.111C43.3084 118.729 43.7505 120.436 44.1334 122.235C45.8313 121.529 47.4878 120.925 49.1001 120.414L65.4153 128.987C67.1209 129.883 69.2874 129.509 70.273 128.133L76.0028 120.118C77.9746 120.791 79.7823 121.59 81.4253 122.454C83.4448 123.515 85.216 124.673 86.7359 125.814L78.4919 141.502C76.9737 140.364 75.2054 139.209 73.1906 138.15C65.7713 134.251 55 131.661 40.9778 136.071Z" fill="#8C0009"/>
<path d="M34.5274 132.682L7.70286 118.586C5.06607 117.2 4.05295 113.94 5.43791 111.305L8.8144 104.879C10.6016 105.482 12.5429 106.279 14.5435 107.331C21.9617 111.229 30.2055 118.632 34.5274 132.682Z" fill="#6E0006"/>
<path d="M67.8376 150.185L40.9776 136.071C54.9998 131.661 65.7711 134.251 73.1904 138.15C75.2052 139.209 76.9735 140.364 78.4917 141.502L75.1189 147.92C73.7339 150.556 70.4732 151.57 67.8376 150.185Z" fill="#6E0006"/>
<path d="M99.2675 63.7574C98.1539 55.5492 93.2198 47.9844 85.3295 43.8382C77.4475 39.6964 68.4307 39.9182 61.0441 43.6446C58.9335 36.2245 58.6711 27.5057 60.3538 18.3902C61.4179 18.1767 62.5547 18.292 63.5899 18.836L118.286 47.5778C119.321 48.1217 120.061 48.9925 120.489 49.99C113.926 56.5564 106.586 61.2892 99.2675 63.7574Z" fill="#E94D57"/>
<path d="M78.2954 63.9856C78.8967 63.3029 79.4262 62.5389 79.8684 61.6974C82.8554 56.013 80.6707 48.9833 74.9852 45.9956C70.7456 43.7678 65.7566 44.4192 62.2558 47.2518C61.7998 46.0874 61.3964 44.8859 61.0439 43.6448C68.4304 39.9184 77.4472 39.6966 85.3293 43.8384C93.2195 47.9846 98.1536 55.5494 99.2673 63.7576C91.9959 66.21 84.7428 66.4262 78.2954 63.9856Z" fill="white"/>
<path d="M75.44 62.7005C69.3497 59.5002 64.9242 54.0689 62.2557 47.2518C65.7565 44.4191 70.7455 43.7677 74.9851 45.9956C80.6706 48.9832 82.8553 56.013 79.8683 61.6973C79.4261 62.5388 78.8966 63.3029 78.2954 63.9855C77.3241 63.6182 76.3713 63.1899 75.44 62.7005Z" fill="#BA4D54"/>
</g>
<defs>
<filter id="filter0_d_66_705" x="4.81791" y="1.18555" width="157.576" height="180.612" filterUnits="userSpaceOnUse" color-interpolation-filters="sRGB">
<feFlood flood-opacity="0" result="BackgroundImageFix"/>
<feColorMatrix in="SourceAlpha" type="matrix" values="0 0 0 0 0 0 0 0 0 0 0 0 0 0 0 0 0 0 127 0" result="hardAlpha"/>
<feOffset dx="20" dy="12"/>
<feGaussianBlur stdDeviation="8.25"/>
<feComposite in2="hardAlpha" operator="out"/>
<feColorMatrix type="matrix" values="0 0 0 0 0 0 0 0 0 0 0 0 0 0 0 0 0 0 0.25 0"/>
<feBlend mode="normal" in2="BackgroundImageFix" result="effect1_dropShadow_66_705"/>
<feBlend mode="normal" in="SourceGraphic" in2="effect1_dropShadow_66_705" result="shape"/>
</filter>
</defs>
</svg>
