<?xml version="1.0" encoding="UTF-8" standalone="no"?>
<!-- Created with Inkscape (http://www.inkscape.org/) -->

<svg
   width="82.967476mm"
   height="31.048mm"
   viewBox="0 0 82.967476 31.048"
   version="1.1"
   id="svg1"
   xmlns="http://www.w3.org/2000/svg"
   xmlns:svg="http://www.w3.org/2000/svg">
  <defs
     id="defs1" />
  <g
     id="layer1"
     transform="translate(-55.987821,-129.35774)">
    <path
       d="m 121.64218,159.71805 v -26.98197 l 4.82905,-0.0154 v 9.2018 h 0.076 c 1.21677,-1.62237 3.10529,-2.43354 5.66558,-2.43354 2.0026,0 3.61228,0.60838 4.82905,1.82515 1.21676,1.19142 1.82515,2.8011 1.82515,4.82905 l 0.0883,13.62368 -4.91738,-0.0491 v -12.28175 c 0,-1.09003 -0.26617,-1.98991 -0.7985,-2.69969 -0.50698,-0.70978 -1.28014,-1.06468 -2.31946,-1.06468 -1.44491,0 -2.54761,0.46896 -3.30809,1.4069 -0.76048,0.91256 -1.14072,2.02794 -1.14072,3.3461 v 11.29807 z"
       id="text7"
       style="font-size:19.7556px;font-family:ItcKabel;-inkscape-font-specification:ItcKabel;fill:#92ddfa;stroke-width:0.509248"
       aria-label="h" />
    <path
       id="text6"
       style="font-size:19.7556px;font-family:ItcKabel;-inkscape-font-specification:ItcKabel;fill:#92ddfa;stroke-width:0.509248"
       d="m 116.42405,139.87269 c -2.86448,0 -5.3353,0.95039 -7.41395,2.85159 -2.12934,1.97724 -3.19474,4.39829 -3.19474,7.26277 0,3.09262 1.11618,5.6401 3.34692,7.6427 2.05329,1.8505 4.42256,2.776 7.10959,2.776 1.62925,0 3.05459,-0.21145 4.2749,-0.63358 v -5.07556 c -1.40572,0.86581 -2.85596,1.29797 -4.35049,1.29797 -1.34352,0 -2.58615,-0.55757 -3.72687,-1.67295 -1.21676,-1.19142 -1.82514,-2.58541 -1.82514,-4.18241 0,-1.72376 0.58348,-3.13017 1.74955,-4.2202 1.19142,-1.09002 2.68696,-1.63516 4.48676,-1.63516 1.03439,0 2.25662,0.39551 3.66619,1.18759 v -4.85478 c -1.36147,-0.4959 -2.73604,-0.74398 -4.12272,-0.74398 z" />
    <path
       d="m 96.794936,140.42431 v -5.50083 l 4.829044,-0.0135 v 5.51349 h 4.37276 v 4.18263 h -4.37276 v 8.25122 c 0,2.05329 1.2041,3.07993 3.61228,3.07993 0.40559,0 0.96328,-0.0254 1.67306,-0.076 l -0.0331,4.31087 c -0.40559,0.10143 -2.18498,0.17592 -3.04686,0.17592 -2.10399,0 -3.8024,-0.55769 -5.095214,-1.67307 -1.292814,-1.11535 -1.939222,-2.71237 -1.939222,-4.79101 v -9.27786 h -2.965871 l -0.0064,-4.18262 z"
       id="text5"
       style="font-size:19.7556px;font-family:ItcKabel;-inkscape-font-specification:ItcKabel;fill:#92ddfa;stroke-width:0.509248"
       aria-label="t" />
    <path
       d="m 90.673075,152.47708 2.053295,4.14461 q -3.688327,2.5476 -8.09911,2.5476 -4.334734,0 -7.528748,-2.96588 -3.194017,-3.00389 -3.194017,-7.30059 0,-4.29671 3.194017,-7.26258 3.194014,-3.0039 7.528748,-3.0039 2.965871,0 5.437431,1.63503 2.471559,1.63503 3.764376,4.33474 l -13.232349,8.21318 q 0.912575,1.93922 3.764374,1.93922 2.851799,0 6.311983,-2.28143 z m -11.977556,-3.07996 9.049709,-5.47544 q -1.254792,-1.2548 -3.384136,-1.2548 -2.243414,0 -3.916471,1.59702 -1.63503,1.59699 -1.82515,3.84041 0,0.83652 0.07605,1.29281 z"
       id="text4"
       style="font-size:19.7556px;font-family:ItcKabel;-inkscape-font-specification:ItcKabel;fill:#92ddfa;stroke-width:0.509248"
       aria-label="e" />
    <path
       d="m 61.460934,159.29421 v -26.69284 l 14.521015,-0.0115 0.0042,4.84009 h -9.505963 v 5.96977 h 7.034438 v 4.82904 h -7.034438 l -0.06246,11.06549 z"
       id="text3"
       style="font-size:19.7556px;font-family:ItcKabel;-inkscape-font-specification:ItcKabel;fill:#92ddfa;stroke-width:0.509248"
       aria-label="F" />
    <path
       style="fill:#92ddfa;fill-opacity:1;stroke-width:0.509248"
       d="m 61.284279,132.42472 -5.162498,-2.98057 13.927005,-0.0864 5.75651,3.0555 z"
       id="path8" />
    <path
       style="fill:#92ddfa;fill-opacity:1;stroke:none;stroke-width:0.293381;stroke-opacity:1"
       d="m 56.990854,134.05412 3.529818,2.05326 v 11.97815 l -3.471075,-1.92362 z"
       id="path9" />
    <path
       style="fill:#92ddfa;fill-opacity:1;stroke:none;stroke-width:0.264583;stroke-opacity:1"
       d="m 57.583357,149.35226 2.140947,1.22677 v 1.15858 l -2.167876,-1.20413 z"
       id="path10" />
    <path
       style="fill:#92ddfa;fill-opacity:1;stroke:#92ddfa;stroke-width:0.264583;stroke-opacity:1"
       d="m 56.260432,129.44081 -0.140317,26.57202"
       id="path12" />
    <path
       style="fill:#92ddfa;fill-opacity:1;stroke:#92ddfa;stroke-width:0.264583;stroke-opacity:1"
       d="m 61.525434,159.17798 -5.468198,-3.27977"
       id="path13" />
  </g>
</svg>
