<svg width="173" height="253" viewBox="0 0 173 253" fill="none" xmlns="http://www.w3.org/2000/svg">
<g opacity="0.8" filter="url(#filter0_d_66_674)">
<path d="M72.7447 210.625C72.7447 210.625 75.4251 232.841 109.908 220.087C144.392 207.332 131.198 189.004 131.198 189.004L72.7447 210.625Z" fill="#62C24C"/>
<path d="M36.3692 21.271L46.506 17.5216C46.506 17.5216 50.9748 34.5843 65.3955 47.4513C78.989 59.5808 87.0154 67.9863 90.0751 72.0421C93.1336 76.0983 95.8101 80.4863 97.7005 85.5972C100.002 91.8186 101.396 98.8714 102.196 109.013C102.196 109.013 103.029 131.708 117.23 155.135C124.458 167.061 135.118 188.55 135.118 188.55C137.723 195.595 131.048 202.473 123.723 207.59C114.131 214.291 102.933 218.433 91.288 219.587C82.3965 220.469 72.8532 219.589 70.2476 212.545C70.2476 212.545 64.3548 189.292 62.0834 175.533C57.6202 148.504 43.4853 130.729 43.4853 130.729C37.4919 122.509 33.9625 116.246 31.6613 110.024C29.7709 104.913 28.9464 99.8402 28.6316 94.7692C28.3144 89.699 28.9391 78.0936 31.3686 60.0374C33.9439 40.8838 26.2337 25.02 26.2337 25.02L36.3692 21.271Z" fill="#9BDB8C"/>
<path d="M37.1744 23.4474L42.9344 21.3169C42.9344 21.3169 50.4791 36.595 63.6066 49.3134C75.9809 61.3025 83.3258 69.5677 86.1508 73.5312C88.9772 77.4941 91.4742 81.7622 93.2999 86.6981C95.5216 92.7043 96.9687 99.4762 97.9826 109.178C97.9826 109.178 99.4096 130.861 112.665 153.65C119.412 165.248 129.48 186.08 129.48 186.08C131.996 192.882 126.31 199.241 119.997 203.9C111.729 210.003 101.966 213.614 91.7177 214.361C83.8897 214.932 75.4356 213.802 72.9198 207.001C72.9198 207.001 67.0085 184.632 64.5836 171.435C59.8178 145.506 46.7922 128.112 46.7922 128.112C41.2489 120.086 37.9423 114.002 35.7206 107.996C33.8949 103.06 33.0123 98.1947 32.5782 93.3469C32.1454 88.4987 32.3425 77.4437 33.9378 60.2875C35.6291 42.0878 31.417 25.577 31.417 25.577L37.1744 23.4474Z" fill="#62C24C"/>
<path d="M47.5281 28.8933L32.8569 34.32C30.0157 35.3709 26.8286 33.907 25.7772 31.0645L23.8655 25.8961L48.8735 16.646L50.7853 21.8144C51.8367 24.6569 50.3718 27.8415 47.5281 28.8933Z" fill="#4E8044"/>
<path d="M50.0672 19.8737L25.0592 29.1238C23.2834 29.7807 21.2945 28.8658 20.6377 27.0901C19.9809 25.3143 20.8953 23.3242 22.671 22.6674L47.6791 13.4172C49.4548 12.7604 51.4442 13.6765 52.101 15.4522C52.7578 17.228 51.843 19.2169 50.0672 19.8737Z" fill="#5B944F"/>
<path d="M46.028 13.7001L24.11 21.8073C22.5856 22.3712 20.8782 21.5868 20.3143 20.0624C19.7505 18.538 20.5365 16.8313 22.0609 16.2675L43.9789 8.16029C45.5033 7.59644 47.2108 8.38078 47.7747 9.90517C48.3385 11.4296 47.5524 13.1363 46.028 13.7001Z" fill="#5B944F"/>
<path d="M51.7073 14.7497L20.4804 26.3001C19.7113 26.5846 18.8479 26.1874 18.563 25.4171L17.5495 22.6772C17.2646 21.9069 17.6617 21.0435 18.4308 20.759L49.6578 9.20856C50.4281 8.92363 51.2915 9.3208 51.5764 10.0911L52.5899 12.831C52.8748 13.6013 52.4777 14.4647 51.7073 14.7497Z" fill="#9BDB8C"/>
<path d="M90.0751 72.0425C87.507 68.6394 81.4282 62.1634 71.5109 53.0044C65.8448 57.4985 59.3475 61.2139 52.1307 63.8833C44.9152 66.5522 37.5641 67.9592 30.336 68.2344C28.7684 81.6415 28.3658 90.515 28.6316 94.7697C28.9464 99.8407 29.7708 104.914 31.6613 110.025C32.9782 113.585 34.7199 117.171 37.0724 121.118C48.3282 122.861 60.3272 121.825 71.9696 117.518C83.6133 113.212 93.3998 106.19 100.811 97.5419C100.03 93.0141 99.0174 89.1579 97.7005 85.5977C95.81 80.4868 93.1335 76.0988 90.0751 72.0425Z" fill="#A84A50"/>
<path d="M85.3253 74.8582C83.5543 72.5108 79.7793 68.4083 73.8465 62.7383C71.6207 60.6103 68.2174 60.3182 65.6447 62.0105C61.984 64.4165 57.9825 66.4582 53.6731 68.0521C49.3651 69.6456 44.9968 70.6998 40.6528 71.2546C37.5969 71.6443 35.2041 74.0803 34.8988 77.1445C34.085 85.31 33.887 90.882 34.0699 93.8169C34.3336 98.0467 35.0207 102.279 36.5975 106.542C37.3533 108.586 38.2765 110.64 39.4173 112.794C40.442 114.726 42.3914 116.022 44.5697 116.223C52.9347 117 61.6938 115.948 70.2224 112.794C78.7522 109.638 86.0862 104.738 91.9335 98.7039C93.4555 97.1345 94.0922 94.8817 93.6127 92.7475C93.0772 90.3696 92.4429 88.2088 91.687 86.1654C90.1102 81.9024 87.8775 78.2416 85.3253 74.8582Z" fill="#9C000A"/>
<path d="M57.8024 107.957C56.5131 108.434 55.1206 108.382 53.8798 107.81C52.6366 107.239 51.6921 106.215 51.2156 104.927C50.7392 103.639 50.7896 102.246 51.3626 101.005L63.5928 74.416C64.1628 73.1745 65.1875 72.2283 66.4743 71.7523C67.7636 71.2754 69.1562 71.3275 70.3969 71.8993C71.6401 72.4701 72.5864 73.4948 73.0623 74.7816C73.5388 76.0696 73.4871 77.4635 72.9141 78.7047L60.6839 105.293C60.1152 106.534 59.0905 107.481 57.8024 107.957Z" fill="#62C24C"/>
<path d="M65.8829 70.1543C64.1684 70.7884 62.805 72.049 62.0426 73.7043L49.8137 100.293C49.0525 101.947 48.983 103.804 49.6172 105.519C50.2513 107.233 51.5124 108.598 53.1672 109.359C54.822 110.12 56.6788 110.19 58.3933 109.555C60.1077 108.921 61.4711 107.661 62.2335 106.005L74.4624 79.4171C76.0376 75.9927 74.5334 71.9259 71.1089 70.3508C69.4541 69.5896 67.5973 69.5201 65.8829 70.1543ZM67.0651 73.3506C67.8892 73.0458 68.8298 73.0519 69.685 73.4463C71.3981 74.2343 72.1549 76.2802 71.3669 77.9932L59.1367 104.582C58.7423 105.437 58.0351 106.054 57.211 106.359C56.3869 106.664 55.4472 106.656 54.5911 106.263C52.878 105.475 52.1213 103.43 52.9092 101.716L65.1394 75.1277C65.5334 74.2711 66.2423 73.6549 67.0651 73.3506Z" fill="white"/>
<path d="M50.1218 97.8722C48.835 98.3481 47.4407 98.2952 46.1999 97.7235C43.6303 96.5415 42.5012 93.4889 43.6827 90.9181L50.9368 75.1475C51.5073 73.9072 52.5316 72.9597 53.8196 72.4833C55.1077 72.0068 56.5019 72.0598 57.7427 72.6315C60.3123 73.8135 61.4414 76.866 60.2611 79.4364L53.0058 95.2075C52.434 96.4482 51.411 97.3953 50.1218 97.8722Z" fill="#4D993C"/>
<path d="M53.2268 70.8856C51.5123 71.5197 50.1494 72.7816 49.3882 74.4364L42.1341 90.207C40.5585 93.6302 42.0632 97.6982 45.4872 99.2721C47.142 100.033 48.9992 100.104 50.7137 99.4699C52.4282 98.8357 53.7923 97.5734 54.5522 95.9191L61.8063 80.1484C63.3815 76.724 61.8773 72.6573 58.4533 71.0833C56.7997 70.3217 54.9437 70.2505 53.2268 70.8856ZM54.409 74.0819C55.2344 73.7766 56.1741 73.7844 57.0307 74.1784C58.7425 74.9669 59.4988 77.0115 58.712 78.7241L51.4579 94.4947C51.0639 95.3513 50.3555 95.9687 49.5314 96.2735C48.7073 96.5784 47.7676 96.5706 46.911 96.1766C45.1992 95.3881 44.4425 93.3422 45.2296 91.6309L52.4837 75.8603C52.8777 75.0037 53.5862 74.3863 54.409 74.0819Z" fill="white"/>
<path d="M70.457 107.225C69.1689 107.702 67.7747 107.649 66.5339 107.077C63.9643 105.895 62.8352 102.842 64.0167 100.272L71.2708 84.501C71.8413 83.2607 72.8656 82.3132 74.1549 81.8363C75.4416 81.3603 76.8359 81.4133 78.0767 81.985C79.3194 82.5546 80.2644 83.5797 80.7409 84.8678C81.2173 86.1558 81.1669 87.5492 80.5939 88.7904L73.3398 104.561C72.7693 105.801 71.745 106.749 70.457 107.225Z" fill="#4D993C"/>
<path d="M73.5641 80.239C71.8471 80.8741 70.4838 82.1347 69.7238 83.789L62.4697 99.5597C61.7085 101.215 61.6373 103.07 62.2719 104.786C62.9061 106.501 64.1679 107.864 65.8228 108.625C67.4764 109.386 69.3336 109.457 71.0493 108.823C72.7638 108.188 74.1267 106.927 74.8891 105.271L82.1424 89.5023C83.7176 86.0779 82.2134 82.0112 78.7889 80.436C77.1341 79.6748 75.2786 79.6048 73.5641 80.239ZM74.7459 83.4341C75.5688 83.1297 76.5085 83.1376 77.365 83.5315C79.0781 84.3195 79.8348 86.3654 79.0464 88.0772L71.7923 103.848C71.3983 104.704 70.6899 105.322 69.867 105.626C69.0417 105.931 68.1019 105.924 67.2454 105.53C65.534 104.742 64.7768 102.695 65.564 100.984L72.8181 85.2134C73.2121 84.3568 73.9206 83.7394 74.7459 83.4341Z" fill="white"/>
<path d="M108.802 195.07C107.993 195.37 107.097 194.956 106.799 194.15C106.5 193.342 106.912 192.446 107.721 192.147C108.528 191.848 109.425 192.26 109.724 193.068C110.022 193.874 109.609 194.772 108.802 195.07Z" fill="#4E9B3D"/>
<path d="M88.7488 202.537C87.3795 203.044 85.8588 202.345 85.3527 200.977C84.8462 199.608 85.5464 198.088 86.9157 197.581C88.2851 197.075 89.8033 197.774 90.3098 199.144C90.8158 200.512 90.1181 202.031 88.7488 202.537Z" fill="#4E9B3D"/>
<path d="M62.0718 175.46C62.0706 175.449 62.0682 175.439 62.067 175.428C62.0677 175.438 62.0706 175.449 62.0718 175.46ZM62.0594 175.388C62.0572 175.375 62.0559 175.36 62.0533 175.345C62.0554 175.358 62.0572 175.375 62.0594 175.388ZM62.0477 175.314C62.0451 175.3 62.0425 175.285 62.0399 175.27C62.043 175.286 62.0446 175.298 62.0477 175.314ZM62.0357 175.243C62.0321 175.226 62.0299 175.209 62.0264 175.191C62.0294 175.207 62.0326 175.227 62.0357 175.243ZM62.0246 175.175C62.0206 175.157 62.0179 175.138 62.0147 175.117C62.0174 175.136 62.0211 175.158 62.0246 175.175ZM62.0122 175.107C60.0173 163.337 56.1996 153.347 52.5446 145.841L52.5459 145.84C56.1996 153.347 60.0173 163.337 62.0122 175.107ZM112.451 146.311C112.444 146.297 112.437 146.281 112.431 146.268C112.437 146.282 112.444 146.297 112.451 146.311ZM112.427 146.261C108.915 138.954 106.605 132.009 105.085 126.136C105.085 126.136 105.087 126.137 105.088 126.137C106.607 132.008 108.916 138.954 112.427 146.261Z" fill="#E5E5E5"/>
<path d="M122.549 172.137C119.394 165.927 115.694 158.859 112.665 153.65C106.932 143.792 103.41 134.141 101.261 126.364C102.554 126.254 103.83 126.178 105.085 126.136C106.605 132.008 108.915 138.954 112.426 146.261C112.427 146.263 112.43 146.265 112.43 146.268C112.437 146.281 112.444 146.297 112.451 146.311C112.456 146.322 112.463 146.335 112.468 146.346C112.472 146.353 112.475 146.361 112.479 146.368C113.867 149.249 115.443 152.187 117.23 155.136C119.737 159.271 122.653 164.554 125.397 169.693C124.488 170.519 123.539 171.335 122.549 172.137ZM69.0477 191.657C67.7726 191.676 66.5183 191.66 65.2912 191.609C64.5716 188.361 63.8673 185.046 63.2513 181.92C62.807 179.662 62.4085 177.501 62.0833 175.534C62.08 175.51 62.0762 175.484 62.0716 175.46C62.0704 175.449 62.0675 175.437 62.0668 175.428C62.0647 175.414 62.0626 175.401 62.0592 175.388C62.0571 175.375 62.0553 175.358 62.0531 175.345C62.0507 175.334 62.0487 175.325 62.0475 175.314C62.0444 175.298 62.0428 175.286 62.0397 175.27C62.039 175.26 62.0375 175.252 62.0355 175.243C62.0324 175.227 62.0293 175.207 62.0262 175.191C62.0256 175.186 62.025 175.18 62.0244 175.175C62.0209 175.158 62.0172 175.136 62.0145 175.117C62.0131 175.114 62.0139 175.112 62.0121 175.107C60.0171 163.337 56.1995 153.347 52.5457 145.84C53.5179 145.044 54.5285 144.259 55.5758 143.489C58.9779 150.769 62.5395 160.317 64.5832 171.435C65.6579 177.288 67.4199 184.946 69.0477 191.657Z" fill="#8BC57E"/>
<path d="M97.698 185.992C87.725 189.681 77.8522 191.518 69.0478 191.656C67.42 184.945 65.658 177.288 64.5833 171.434C62.5396 160.317 58.978 150.769 55.5759 143.489C61.774 138.93 69.255 134.877 77.6435 131.774C85.7544 128.774 93.8014 126.996 101.261 126.363C103.41 134.141 106.932 143.792 112.665 153.65C115.695 158.858 119.394 165.927 122.549 172.137C115.862 177.564 107.382 182.41 97.698 185.992ZM107.532 173.146C106.725 173.445 106.311 174.342 106.611 175.151C106.909 175.957 107.807 176.37 108.614 176.071C109.422 175.772 109.834 174.875 109.536 174.069C109.236 173.26 108.34 172.848 107.532 173.146ZM91.2701 177.5C90.4623 177.798 90.0502 178.694 90.349 179.502C90.6473 180.309 91.5442 180.723 92.352 180.425C93.1599 180.126 93.5723 179.227 93.2739 178.42C92.9751 177.613 92.0779 177.201 91.2701 177.5ZM85.6408 162.281C84.2727 162.787 83.5743 164.308 84.0803 165.676C84.5868 167.045 86.1063 167.744 87.4744 167.238C88.8437 166.731 89.5427 165.212 89.0362 163.842C88.5301 162.474 87.0102 161.774 85.6408 162.281ZM73.8133 166.656C73.0055 166.954 72.5938 167.852 72.8926 168.659C73.1915 169.467 74.0874 169.879 74.8952 169.581C75.7031 169.282 76.1164 168.385 75.8176 167.577C75.5188 166.77 74.6212 166.357 73.8133 166.656ZM96.5885 143.559C95.2204 144.065 94.5202 145.585 95.0267 146.954C95.5327 148.322 97.0539 149.022 98.422 148.516C99.7913 148.009 100.49 146.489 99.9838 145.121C99.4773 143.751 97.9578 143.052 96.5885 143.559ZM68.4955 144.661C67.1275 145.167 66.4268 146.686 66.9333 148.055C67.4398 149.425 68.9606 150.123 70.3286 149.617C71.698 149.11 72.3969 147.591 71.8904 146.222C71.3839 144.852 69.8649 144.155 68.4955 144.661ZM89.7065 129.45C88.3384 129.956 87.64 131.477 88.146 132.845C88.652 134.213 90.172 134.913 91.5401 134.407C92.9094 133.901 93.6092 132.379 93.1031 131.011C92.5971 129.643 91.0759 128.944 89.7065 129.45Z" fill="#58AE44"/>
<path d="M92.352 180.424C91.5442 180.723 90.6473 180.309 90.349 179.502C90.0501 178.694 90.4622 177.798 91.2701 177.499C92.0779 177.201 92.9751 177.612 93.2739 178.42C93.5723 179.227 93.1598 180.126 92.352 180.424Z" fill="#468B37"/>
<path d="M74.8955 169.581C74.0876 169.879 73.1917 169.467 72.8929 168.66C72.5941 167.852 73.0057 166.954 73.8135 166.656C74.6214 166.357 75.519 166.77 75.8178 167.578C76.1166 168.385 75.7033 169.282 74.8955 169.581Z" fill="#468B37"/>
<path d="M108.614 176.071C107.807 176.37 106.909 175.957 106.611 175.151C106.311 174.342 106.725 173.445 107.533 173.146C108.34 172.848 109.236 173.26 109.536 174.069C109.834 174.875 109.422 175.773 108.614 176.071Z" fill="#468B37"/>
<path d="M87.4744 167.238C86.1063 167.744 84.5868 167.045 84.0803 165.676C83.5743 164.308 84.2727 162.787 85.6408 162.281C87.0101 161.775 88.5301 162.475 89.0361 163.843C89.5426 165.212 88.8437 166.732 87.4744 167.238Z" fill="#468B37"/>
<path d="M98.4219 148.516C97.0538 149.022 95.5326 148.322 95.0266 146.954C94.5201 145.585 95.2203 144.065 96.5884 143.559C97.9577 143.053 99.4772 143.751 99.9837 145.121C100.49 146.489 99.7912 148.01 98.4219 148.516Z" fill="#468B37"/>
<path d="M70.3287 149.617C68.9606 150.123 67.4398 149.424 66.9333 148.055C66.4268 146.686 67.1275 145.167 68.4956 144.661C69.8649 144.154 71.3839 144.852 71.8904 146.221C72.3969 147.591 71.698 149.11 70.3287 149.617Z" fill="#468B37"/>
<path d="M91.5403 134.407C90.1722 134.913 88.6522 134.213 88.1462 132.845C87.6402 131.477 88.3386 129.956 89.7067 129.45C91.0761 128.944 92.5973 129.643 93.1033 131.011C93.6094 132.379 92.9096 133.901 91.5403 134.407Z" fill="#468B37"/>
<path d="M31.3569 60.1214C31.3611 60.0943 31.3648 60.0659 31.3686 60.0375C31.3648 60.0659 31.3607 60.093 31.3569 60.1214ZM65.4337 47.4856C65.4206 47.4734 65.408 47.4624 65.3954 47.4514C65.408 47.4624 65.4211 47.4746 65.4337 47.4856ZM65.3954 47.4514C60.2543 42.8648 56.3787 37.7446 53.5182 33.0551C53.5194 33.0546 53.5202 33.0529 53.5215 33.0524C56.3812 37.7437 60.2538 42.8635 65.3954 47.4514ZM31.3686 60.0375C31.3712 60.0138 31.375 59.9896 31.3776 59.9659C31.3745 59.9883 31.3712 60.0138 31.3686 60.0375ZM31.4012 59.7837C31.4032 59.7659 31.4064 59.7477 31.4083 59.7299C31.4068 59.749 31.4044 59.7655 31.4012 59.7837ZM31.4118 59.7087C31.4144 59.685 31.4175 59.6625 31.4206 59.6401C31.4175 59.6625 31.4137 59.6867 31.4118 59.7087ZM31.4222 59.6253C31.425 59.6058 31.4277 59.5863 31.4292 59.5673C31.4272 59.585 31.425 59.6058 31.4222 59.6253ZM31.4315 59.5465C31.4341 59.5228 31.4384 59.4999 31.441 59.4762C31.4384 59.4999 31.4345 59.5241 31.4315 59.5465ZM31.4523 59.3838C31.4546 59.3631 31.4574 59.3436 31.4596 59.3229C31.4574 59.3436 31.4551 59.3643 31.4523 59.3838ZM31.4894 59.073C31.4928 59.0476 31.495 59.0226 31.4984 58.9972C31.4958 59.0209 31.492 59.0493 31.4894 59.073ZM31.4987 58.9942C32.2479 52.5259 31.8458 46.4693 31.0016 41.3083C31.0029 41.3078 31.0041 41.3074 31.0041 41.3074C31.8483 46.4683 32.2484 52.5272 31.4987 58.9942Z" fill="white"/>
<path d="M63.6385 49.3453C63.6272 49.3339 63.618 49.3244 63.6067 49.313C58.5399 44.4046 54.3034 39.1123 51.0128 34.4667C51.8661 34.0103 52.7025 33.5388 53.5187 33.055C56.3792 37.7445 60.2548 42.8647 65.3959 47.4513C65.4085 47.4623 65.4211 47.4733 65.4342 47.4855C65.5528 47.5909 65.6645 47.6932 65.7819 47.799L65.7323 47.8458C65.0524 48.356 64.3545 48.8558 63.6385 49.3453ZM33.9409 60.249C33.0579 60.341 32.1803 60.4126 31.312 60.4636C31.3272 60.3471 31.3418 60.2365 31.3574 60.1213C31.3611 60.0929 31.3653 60.0658 31.3691 60.0374C31.3717 60.0137 31.375 59.9882 31.3781 59.9658C31.3783 59.9586 31.3802 59.9522 31.3809 59.9463C31.3836 59.9268 31.3863 59.9073 31.3891 59.8878C31.3885 59.8824 31.3896 59.8777 31.3907 59.873C31.3933 59.8493 31.3959 59.8256 31.4002 59.8027C31.4004 59.7955 31.4015 59.7908 31.4017 59.7836C31.4049 59.7654 31.4073 59.7489 31.4088 59.7298C31.4103 59.7222 31.4109 59.7163 31.4123 59.7086C31.4142 59.6866 31.418 59.6625 31.4211 59.64C31.4205 59.6345 31.4216 59.6299 31.4227 59.6252C31.4255 59.6057 31.4277 59.5849 31.4297 59.5672C31.4311 59.5595 31.4318 59.5536 31.432 59.5464C31.435 59.524 31.4389 59.4998 31.4415 59.4761C31.441 59.4748 31.4414 59.4719 31.4421 59.4702C31.4444 59.4494 31.4475 59.4269 31.4497 59.4062C31.4512 59.3985 31.4514 59.3914 31.4528 59.3837C31.4556 59.3642 31.4578 59.3435 31.4601 59.3228C31.4605 59.3198 31.4608 59.3168 31.4606 59.3126C31.4645 59.2884 31.4671 59.2647 31.4705 59.2393C31.4708 59.2363 31.4707 59.2321 31.4718 59.2274C31.4744 59.2037 31.4775 59.1813 31.4801 59.1576L31.4804 59.1546C31.4833 59.1279 31.4867 59.1025 31.4896 59.0758C31.4891 59.0746 31.4891 59.0746 31.4899 59.0729C31.4925 59.0492 31.4963 59.0208 31.4989 58.9971C31.4984 58.9958 31.4997 58.9954 31.4992 58.9941C32.2489 52.5271 31.8488 46.4683 31.0046 41.3073C31.9423 41.1481 32.8865 40.968 33.8333 40.7643C34.3617 46.4358 34.5915 53.2144 33.9409 60.249Z" fill="#AFE2A3"/>
<path d="M49.5749 56.558C44.2789 58.5169 38.9918 59.7233 33.9407 60.2496C34.5913 53.215 34.3615 46.4365 33.8331 40.7649C36.7837 40.1327 39.7743 39.2781 42.773 38.1689C45.6768 37.0949 48.4285 35.8482 51.0126 34.4673C54.3033 39.1129 58.5397 44.4052 63.6065 49.3136C63.6178 49.3251 63.627 49.3345 63.6383 49.3459C59.5103 52.1679 54.7771 54.6337 49.5749 56.558Z" fill="#81CE70"/>
</g>
<defs>
<filter id="filter0_d_66_674" x="17.457" y="3.47783" width="154.736" height="249.059" filterUnits="userSpaceOnUse" color-interpolation-filters="sRGB">
<feFlood flood-opacity="0" result="BackgroundImageFix"/>
<feColorMatrix in="SourceAlpha" type="matrix" values="0 0 0 0 0 0 0 0 0 0 0 0 0 0 0 0 0 0 127 0" result="hardAlpha"/>
<feOffset dx="20" dy="12"/>
<feGaussianBlur stdDeviation="8.25"/>
<feComposite in2="hardAlpha" operator="out"/>
<feColorMatrix type="matrix" values="0 0 0 0 0 0 0 0 0 0 0 0 0 0 0 0 0 0 0.25 0"/>
<feBlend mode="normal" in2="BackgroundImageFix" result="effect1_dropShadow_66_674"/>
<feBlend mode="normal" in="SourceGraphic" in2="effect1_dropShadow_66_674" result="shape"/>
</filter>
</defs>
</svg>
