<?xml version="1.0" encoding="UTF-8" standalone="no"?>
<svg
   xmlns:dc="http://purl.org/dc/elements/1.1/"
   xmlns:cc="http://creativecommons.org/ns#"
   xmlns:rdf="http://www.w3.org/1999/02/22-rdf-syntax-ns#"
   xmlns:svg="http://www.w3.org/2000/svg"
   xmlns="http://www.w3.org/2000/svg"
   xmlns:sodipodi="http://sodipodi.sourceforge.net/DTD/sodipodi-0.dtd"
   xmlns:inkscape="http://www.inkscape.org/namespaces/inkscape"
   version="1.1"
   id="Layer_1"
   x="0px"
   y="0px"
   width="1000"
   height="380.79507"
   viewBox="0 0 999.99999 380.79507"
   enable-background="new 0 0 300 120"
   xml:space="preserve"
   inkscape:version="1.0.2-2 (e86c870879, 2021-01-15)"
   sodipodi:docname="Pepsi_2008.svg"
   inkscape:export-filename="C:\Users\tjdru\OneDrive\Pictures\Logos\Other\pepsilogo2008.png"
   inkscape:export-xdpi="96"
   inkscape:export-ydpi="96"><metadata
   id="metadata39"><rdf:RDF><cc:Work
       rdf:about=""><dc:format>image/svg+xml</dc:format><dc:type
         rdf:resource="http://purl.org/dc/dcmitype/StillImage" /><dc:title></dc:title></cc:Work></rdf:RDF></metadata><defs
   id="defs37">
	
	

	
	

		
		
	
		
	
			
		
				
				
				
				
				
				
			</defs><sodipodi:namedview
   pagecolor="#ffffff"
   bordercolor="#666666"
   borderopacity="1"
   objecttolerance="10"
   gridtolerance="10"
   guidetolerance="10"
   inkscape:pageopacity="0"
   inkscape:pageshadow="2"
   inkscape:window-width="1366"
   inkscape:window-height="705"
   id="namedview35"
   showgrid="false"
   fit-margin-top="0"
   fit-margin-left="0"
   fit-margin-right="0"
   fit-margin-bottom="0"
   inkscape:zoom="0.5"
   inkscape:cx="376.26756"
   inkscape:cy="172.84155"
   inkscape:window-x="-8"
   inkscape:window-y="-8"
   inkscape:window-maximized="1"
   inkscape:current-layer="layer14"
   inkscape:document-rotation="0"
   showguides="true"
   inkscape:guide-bbox="true"
   inkscape:snap-smooth-nodes="false"
   inkscape:snap-bbox="false"
   inkscape:snap-bbox-edge-midpoints="false"
   inkscape:bbox-nodes="true"
   inkscape:snap-nodes="true"
   inkscape:snap-page="false" />


<g
   inkscape:groupmode="layer"
   id="layer14"
   inkscape:label="Layer 1"
   transform="translate(-71.287018,-54.645746)"><g
     id="g91"
     transform="matrix(1.4393985,0,0,1.4393985,-31.323406,-24.011257)"><path
       sodipodi:nodetypes="ccccc"
       id="path7"
       d="m 203.51099,54.645745 c -72.90864,0 -132.223974,59.339425 -132.223974,132.276965 0,72.93754 59.315334,132.27456 132.223974,132.27456 72.90624,0 132.21916,-59.33942 132.21916,-132.27456 0,-72.93754 -59.31292,-132.276965 -132.21916,-132.276965 z"
       style="fill:#0153a0;fill-opacity:1;stroke:none;stroke-width:2.40845"
       inkscape:connector-curvature="0" /><path
       id="path55165"
       d="m 333.3217,186.92271 c 0,71.72609 -58.12074,129.8661 -129.81071,129.8661 -71.69477,0 -129.815517,-58.14001 -129.815517,-129.8661 0,-71.72609 58.120747,-129.868514 129.815517,-129.868514 71.68997,0 129.81071,58.142424 129.81071,129.868514 z"
       style="fill:#ffffff;stroke:none;stroke-width:2.40845"
       inkscape:connector-curvature="0"
       sodipodi:nodetypes="ccccc" /><path
       style="fill:#ee1d23;fill-opacity:1;stroke:none;stroke-width:2.40845"
       d="m 203.51099,63.289677 c -68.24828,0 -123.57522,55.351033 -123.57522,123.630623 0,27.67551 9.099126,53.22436 24.453,73.83349 41.35311,-12.21086 77.40451,-33.48079 108.35141,-64.15874 30.854,-30.58586 52.58132,-66.72614 64.99929,-108.076844 C 259.51593,72.608921 229.95821,63.289677 203.51099,63.289677 Z"
       id="path31"
       sodipodi:nodetypes="cccccc" /><path
       style="fill:#0153a0;fill-opacity:1;stroke:none;stroke-width:2.40845"
       d="m 311.10134,145.7406 c -0.98505,29.54347 -13.42612,53.66617 -35.52226,69.75116 -21.09303,15.35477 -46.76971,21.94568 -69.20684,26.98429 -32.40167,7.27631 -67.96587,15.02909 -97.36647,24.07969 22.66594,26.90722 56.58657,43.99759 94.50522,43.99759 68.24347,0 123.57042,-55.36066 123.57042,-123.63303 0,-24.1688 -7.7793,-47.73309 -19.75893,-66.7719 2.48311,8.20799 4.07389,16.74365 3.77886,25.5922 z"
       id="path33"
       sodipodi:nodetypes="cccccccc" /><path
       id="path27-2"
       style="fill:#013d7d;fill-opacity:1;stroke:none;stroke-width:2.40845"
       d="m 621.4014,142.40971 c -12.39631,0 -23.11642,3.85492 -31.59647,11.42088 -9.50637,8.48164 -14.09908,20.17318 -14.09908,35.48612 v 61.00608 h 12.63956 v -39.37337 c 3.88964,4.37375 8.75452,7.7663 14.34232,10.21184 6.07875,2.6604 12.3963,3.88242 19.20018,3.88242 12.8852,0 23.70295,-4.01106 32.81274,-12.15305 9.11921,-8.15042 13.61015,-17.74065 13.61015,-29.16635 0,-11.66653 -4.26172,-21.51474 -13.3669,-29.40718 -9.12386,-7.90863 -20.17079,-11.90739 -33.5425,-11.90739 z m -24.7902,20.6573 c 6.50487,-6.37725 14.58559,-9.72293 24.7902,-9.72293 9.72533,0 17.74265,2.9219 24.30367,8.74991 6.56744,5.83372 9.72293,13.12124 9.72293,21.88078 0,8.25858 -2.79376,15.18282 -8.50907,20.89813 -6.19688,6.19688 -14.58076,9.23882 -25.27428,9.23882 -9.96618,0 -18.64656,-2.97736 -25.03585,-9.23882 -6.01478,-5.89444 -8.75177,-12.87799 -8.7499,-20.89813 0.002,-8.02496 2.85789,-15.12899 8.7523,-20.90776 z m -181.077,-20.6573 c -12.39631,0 -23.11642,3.85492 -31.59647,11.42088 -9.50637,8.48164 -14.09908,20.17318 -14.09908,35.48612 v 61.00608 h 12.63956 v -39.37337 c 3.88964,4.37375 8.75452,7.7663 14.34232,10.21184 6.07875,2.6604 12.3963,3.88242 19.20018,3.88242 12.8852,0 23.70295,-4.01106 32.81274,-12.15305 9.11921,-8.15042 13.61015,-17.74065 13.61015,-29.16635 0,-11.66653 -4.26172,-21.51474 -13.3669,-29.40718 -9.12386,-7.90863 -20.17079,-11.90739 -33.5425,-11.90739 z m -24.7902,20.6573 c 6.50487,-6.37725 14.58559,-9.72293 24.7902,-9.72293 9.72533,0 17.74265,2.9219 24.30367,8.74991 6.56744,5.83372 9.72293,13.12124 9.72293,21.88078 0,8.25858 -2.79376,15.18282 -8.50907,20.89813 -6.19688,6.19688 -14.58076,9.23882 -25.27428,9.23882 -9.96618,0 -18.64656,-2.97736 -25.03585,-9.23882 -6.01478,-5.89444 -8.75177,-12.87799 -8.7499,-20.89813 0.002,-8.02496 2.85789,-15.12899 8.7523,-20.90776 z m 164.54781,-4.85545 c -8.62403,-10.59815 -20.65728,-15.80185 -36.94323,-15.80185 -12.15305,0 -22.52723,3.5041 -31.59889,10.69112 -9.64071,7.63786 -14.57835,17.74788 -14.57835,30.38502 0,7.04712 2.06223,14.02201 6.0717,20.65729 3.77364,6.24501 9.19128,11.51932 16.77487,15.31051 7.48727,3.74304 15.55378,5.34678 24.30369,5.34678 8.26339,0 16.08564,-1.60084 23.57872,-5.34678 7.57785,-3.78832 13.07045,-9.02274 16.76764,-15.31051 l 2.43013,-4.1329 h -14.09425 c -2.91904,4.1329 -7.05603,7.53989 -12.39631,10.20942 -5.34602,2.6724 -11.18001,3.88965 -16.77244,3.88965 -7.7769,0 -14.39667,-1.8646 -20.17319,-5.83567 -5.8912,-4.0499 -9.72051,-9.23642 -12.15305,-16.0427 13.71728,-5.38821 23.83663,-4.74555 37.91867,-3.40314 l 20.41403,1.94603 c 6.28885,0.5995 11.70145,-0.87602 16.52919,-2.42773 1.97948,-0.63624 3.01262,-1.77532 3.6488,-2.92145 0.58794,-1.05922 0.60329,-2.64011 0.24326,-4.61941 -1.58684,-8.72368 -4.74727,-16.1742 -9.97099,-22.59368 z m -3.15748,20.41645 c -7.43491,1.69353 -14.86943,0.0901 -22.36247,-0.48411 -8.34019,-0.63908 -16.6677,-1.97571 -25.03345,-1.70758 -6.82254,0.21867 -13.12606,1.70758 -19.20257,3.88964 0.97059,-8.99556 5.25735,-16.17789 12.64196,-21.14619 5.9849,-4.02659 12.88039,-6.07894 20.17078,-6.07894 11.42087,0 20.30728,3.52791 26.73622,10.93919 3.53464,4.07473 5.92403,9.78238 7.04953,14.58799 z m 176.70326,7.52881 c -3.86464,-3.42125 -10.2629,-6.14463 -18.47281,-8.7475 -6.37993,-2.02269 -11.01317,-4.2698 -13.615,-6.08133 -2.9925,-2.08353 -4.12807,-4.617 -4.12807,-7.29038 0,-3.1623 1.11236,-5.71816 3.89205,-7.77449 2.81664,-2.08366 6.79665,-3.16469 11.90498,-3.16469 7.04714,0 12.83757,1.46203 17.50222,4.30967 l 1.70277,1.03949 6.0693,-9.95895 -1.71331,-0.97542 c -5.87178,-3.34292 -13.35396,-5.10351 -21.8582,-5.10351 -9.23883,0 -16.74245,2.22308 -22.36247,6.56062 -2.88702,2.2282 -4.81209,4.39953 -6.31978,7.29519 -1.4046,2.69767 -2.19169,5.34436 -2.19169,8.50185 0,5.34917 2.43082,9.72754 6.8135,13.61015 4.12399,3.65344 10.2216,6.50225 18.22476,8.99316 6.82381,2.12384 11.57828,4.18289 14.33992,6.56545 2.60343,2.24606 3.89447,5.10109 3.89447,8.50424 0,3.6464 -1.831,6.73282 -5.35399,8.99556 -3.29926,2.11904 -8.26821,3.15988 -14.33992,3.15988 -6.56544,0 -13.11706,-1.71939 -19.92994,-4.86747 l -1.89923,-0.87759 -5.39355,9.87555 1.94843,0.97062 c 7.4906,3.73148 15.79943,5.34676 24.79019,5.34676 9.72292,0 17.66749,-2.05491 24.06283,-6.31738 3.08973,-2.0593 5.45587,-4.55048 7.04954,-7.28797 1.8047,-3.09998 2.43013,-6.56784 2.43013,-10.09262 0,-5.95489 -2.40983,-11.08363 -7.04713,-15.18889 z m 35.24769,36.94806 v -78.50829 h -13.13329 l 0.24806,78.50829 z m -0.49374,-89.44748 c 1.52324,-1.63926 2.43013,-3.63917 2.43013,-6.0693 0,-2.67578 -0.90578,-4.92507 -2.43013,-6.56543 -1.64274,-1.76775 -3.88484,-2.67821 -6.32219,-2.67821 -2.42531,0 -4.4279,0.91013 -6.31977,2.67821 -1.75439,1.6396 -2.43012,3.88965 -2.43012,6.56543 0,2.43013 0.6764,4.43149 2.43012,6.0693 1.89249,1.76741 3.89446,2.43013 6.31977,2.43013 2.43735,0 4.68066,-0.66358 6.32219,-2.43013 z"
       sodipodi:nodetypes="cccccccccccccccccccccccccccccccccccccccccccccccccccccccccccccccccccccccccccccccccccccccccccccccccccccccccccccccccc" /></g></g></svg>
